<svg width="374" height="506" viewBox="0 0 374 506" fill="none" xmlns="http://www.w3.org/2000/svg">
<path d="M317.083 155.645C317.08 161.204 318.699 166.642 321.74 171.292C324.781 175.941 329.113 179.598 334.201 181.813C339.289 184.028 344.913 184.704 350.38 183.759C355.847 182.813 360.919 180.287 364.972 176.491C369.024 172.695 371.882 167.795 373.192 162.393C374.501 156.991 374.207 151.324 372.344 146.087C370.482 140.851 367.132 136.275 362.708 132.921C358.283 129.567 352.977 127.582 347.442 127.211V155.645H317.083Z" fill="#E5E8ED"/>
<path d="M314.001 152.335H344.359V123.87C343.748 123.821 343.1 123.803 342.464 123.803C338.725 123.803 335.023 124.541 331.569 125.975C328.115 127.409 324.976 129.511 322.333 132.16C319.69 134.81 317.594 137.955 316.164 141.417C314.735 144.878 313.999 148.588 314.001 152.335Z" fill="#00F0B5"/>
<path d="M243.058 28.5652L232.591 21.948L291.089 15.4746L267.479 47.2661L258.925 41.1763L246.164 46.355L243.058 28.5652ZM246.26 40.6009L246.642 32.4492L246.546 32.4013L275.7 21.0849L245.734 30.2435L244.3 29.3324L246.26 40.6009ZM235.841 22.7152L245.877 29.0447L284.111 17.3447L235.841 22.7152ZM288.317 17.3447L248.84 32.641L267.24 45.7796L288.317 17.3447ZM247.741 33.2164L247.168 44.7247L257.873 40.4091L247.741 33.2164Z" fill="#9A9CA5"/>
<path d="M217.526 69.1238C220.133 69.1238 222.55 68.6014 224.541 67.224C227.242 65.3717 228.712 62.807 229.328 60.0998C231.319 60.4798 233.499 60.3373 235.869 59.3399C242.789 56.3953 246.06 48.7961 246.202 48.5112L245.207 48.0837C245.159 48.1787 241.984 55.5879 235.49 58.3425C233.357 59.2449 231.366 59.3874 229.565 59.055C230.039 55.7778 229.281 52.5007 227.953 50.221C226.484 47.7987 224.446 46.8488 222.597 47.7987C220.607 48.8436 220.085 51.2183 221.365 53.9255C222.503 56.3478 225.015 58.865 228.333 59.8624C227.764 62.3321 226.437 64.6593 224.019 66.3216C215.44 72.211 197.144 61.0022 196.954 60.9073L196.385 61.8097C196.859 62.1896 208.235 69.1238 217.526 69.1238ZM223.972 48.5112C225.441 48.5112 226.579 50.1735 226.911 50.7909C228.143 52.8332 228.807 55.8253 228.38 58.77C225.441 57.8676 223.213 55.5879 222.218 53.4506C221.412 51.7883 221.223 49.651 222.976 48.7486C223.356 48.5586 223.687 48.5112 223.972 48.5112Z" fill="#00F0B5"/>
<path d="M223.676 493.77V351.173L184.886 314.695L180.652 505.001H232.502L223.676 493.77Z" fill="#D7DADD"/>
<path d="M213.719 222.019L149.134 217.586L137.391 300.501V505H197.378L191.035 493.611L213.719 222.019Z" fill="#E5E8ED"/>
<path d="M183.589 372.994C197.17 370.843 210.57 367.673 223.676 363.509L184.22 344.633L183.589 372.994Z" fill="#1E212C"/>
<path d="M137.392 322.229V375.071C159.835 377.355 184.276 373.431 201.399 369.546L202.739 353.492L137.392 322.229Z" fill="#1E212C"/>
<path d="M197.378 505L191.035 493.611L213.719 222.02" stroke="#1E212C" stroke-width="1.5" stroke-linecap="round" stroke-linejoin="round"/>
<path d="M139.629 159.354V223.375L230.141 245.666V174.364C230.141 149.082 212.915 127.066 188.413 121.032H188.413C176.662 118.138 164.236 120.817 154.714 128.297C145.191 135.778 139.629 147.229 139.629 159.354V159.354Z" fill="#00F0B5"/>
<path d="M157.554 86.1028V96.3178C157.554 104.216 162.935 111.094 170.59 112.98L186.813 116.975V77.0366L173.324 73.7145C169.525 72.779 165.508 73.6451 162.43 76.0633C159.352 78.4815 157.554 82.1834 157.554 86.1028V86.1028Z" fill="#E5E8ED"/>
<path d="M157.554 96.3184C157.554 104.217 162.935 111.095 170.59 112.98L186.813 116.976" stroke="#1E212C" stroke-width="1.5" stroke-linecap="round" stroke-linejoin="round"/>
<path d="M174.083 94.2904C174.515 94.2904 174.865 93.9395 174.865 93.5065C174.865 93.0736 174.515 92.7227 174.083 92.7227C173.651 92.7227 173.301 93.0736 173.301 93.5065C173.301 93.9395 173.651 94.2904 174.083 94.2904Z" fill="#1E212C"/>
<path d="M162.067 94.2904C162.5 94.2904 162.85 93.9395 162.85 93.5065C162.85 93.0736 162.5 92.7227 162.067 92.7227C161.635 92.7227 161.285 93.0736 161.285 93.5065C161.285 93.9395 161.635 94.2904 162.067 94.2904Z" fill="#1E212C"/>
<path d="M165.592 98.1825V86.1016H159.552" stroke="#1E212C" stroke-width="1.5" stroke-linecap="round" stroke-linejoin="round"/>
<path d="M175.555 86.1025H169.516" stroke="#1E212C" stroke-width="1.5" stroke-linecap="round" stroke-linejoin="round"/>
<path d="M184.886 92.2934V96.4886C187.144 96.4886 188.975 94.6541 188.975 92.3911C188.975 92.2654 188.969 92.1411 188.958 92.0182C188.729 89.4738 184.886 89.7387 184.886 92.2934Z" fill="#E5E8ED"/>
<path d="M184.886 96.4881C187.144 96.4881 188.975 94.6536 188.975 92.3906" stroke="#1E212C" stroke-width="1.5" stroke-linecap="round" stroke-linejoin="round"/>
<path d="M168.894 99.5957C169.401 100.105 170.09 100.39 170.808 100.39C171.526 100.39 172.215 100.105 172.723 99.5957" stroke="#1E212C" stroke-width="1.5" stroke-linecap="round" stroke-linejoin="round"/>
<path d="M165.59 98.1934L168.232 98.844" stroke="#1E212C" stroke-width="1.5" stroke-linecap="round" stroke-linejoin="round"/>
<path d="M157.554 82.7448C157.554 82.7448 166.115 81.6483 168.233 77.4941C168.233 77.4941 170.915 81.8236 174.864 81.4552C174.864 81.4552 177.159 86.1531 181.204 85.324C181.204 85.324 180.89 89.7347 184.886 90.6668" stroke="#1E212C" stroke-width="1.5" stroke-linecap="round" stroke-linejoin="round"/>
<path d="M157.556 90.6671C157.556 90.6671 140.388 80.5343 156.384 69.6645C172.38 58.7948 183.044 68.9276 183.044 68.9276C183.044 68.9276 193.341 71.8199 193.525 77.6509C193.525 77.6509 198.121 82.7451 196.65 87.5351C196.65 87.5351 202.403 102.642 186.932 107.432" stroke="#1E212C" stroke-width="1.5" stroke-linecap="round" stroke-linejoin="round"/>
<path d="M186.931 109.642C188.978 109.398 190.93 108.637 192.604 107.432" stroke="#00F0B5" stroke-width="1.5" stroke-linecap="round" stroke-linejoin="round"/>
<path d="M186.813 113.235V126.755C186.763 131.818 190.391 136.168 195.372 137.019C197.247 137.308 199.113 137.027 200.602 135.62C205.474 131.014 203.084 120.052 198.855 117.381C199.053 114.294 197.336 111.402 194.534 110.104" stroke="#1E212C" stroke-width="1.5" stroke-linecap="round" stroke-linejoin="round"/>
<path d="M139.63 223.375L68.1279 345.092C68.1279 345.092 154.971 377.504 230.141 363.508V231.236" fill="#00F0B5"/>
<path d="M68.1279 345.094C68.1279 345.094 154.971 377.506 230.141 363.51" stroke="#1E212C" stroke-width="1.5" stroke-linecap="round" stroke-linejoin="round"/>
<path d="M213.719 135.166C213.719 135.166 239.719 157.773 243.028 187.066C243.028 187.066 247.945 110.747 249.6 107.431C251.255 104.115 254.012 119.872 254.012 119.872C254.012 119.872 274.421 126.776 263.941 141.699C263.941 141.699 292.316 230.13 230.14 238.974" stroke="#1E212C" stroke-width="1.5" stroke-linecap="round" stroke-linejoin="round"/>
<path d="M157.554 126.265C157.554 126.265 135.79 137.279 118.507 177.073C118.507 177.073 89.8241 130.582 69.5992 123.613C49.3742 116.645 45.3293 115.833 44.5938 116.976C43.8583 118.119 54.8901 126.225 54.8901 126.225C54.8901 126.225 49.3742 143.447 66.2897 146.811C66.2897 146.811 68.8965 220.552 101.056 230.869C133.216 241.186 162.066 198.813 162.066 198.813" stroke="#1E212C" stroke-width="1.5" stroke-linecap="round" stroke-linejoin="round"/>
<path d="M296.606 281.86C294.896 281.86 293.211 281.438 291.703 280.631C290.194 279.823 288.907 278.655 287.957 277.23C287.006 275.806 286.421 274.168 286.253 272.462C286.085 270.757 286.34 269.036 286.995 267.453C287.649 265.869 288.683 264.472 290.005 263.385C291.328 262.297 292.897 261.554 294.575 261.22C296.252 260.885 297.986 260.971 299.623 261.469C301.259 261.967 302.748 262.861 303.957 264.073C305.411 265.531 306.401 267.387 306.802 269.408C307.203 271.429 306.997 273.523 306.21 275.427C305.423 277.33 304.091 278.957 302.381 280.102C300.672 281.247 298.662 281.859 296.606 281.86ZM296.606 264.125C294.919 264.124 293.284 264.71 291.98 265.782C290.676 266.854 289.783 268.346 289.454 270.004C289.124 271.661 289.379 273.382 290.174 274.873C290.97 276.364 292.256 277.532 293.815 278.178C295.373 278.825 297.108 278.91 298.722 278.419C300.336 277.927 301.73 276.89 302.666 275.485C303.603 274.079 304.024 272.391 303.857 270.709C303.691 269.027 302.948 267.455 301.754 266.261C301.08 265.58 300.278 265.041 299.394 264.674C298.51 264.307 297.563 264.121 296.606 264.125Z" fill="#D7DADD"/>
<path d="M312.555 289.484C312.345 289.486 312.137 289.446 311.944 289.364C311.751 289.282 311.577 289.162 311.432 289.009L301.754 278.837C301.596 278.694 301.469 278.521 301.381 278.327C301.293 278.133 301.246 277.924 301.242 277.711C301.239 277.498 301.28 277.287 301.361 277.09C301.443 276.894 301.565 276.716 301.718 276.569C301.871 276.422 302.053 276.308 302.253 276.234C302.452 276.16 302.665 276.129 302.877 276.141C303.089 276.154 303.296 276.21 303.486 276.306C303.675 276.403 303.843 276.537 303.978 276.701L313.667 286.874C313.878 287.091 314.021 287.366 314.076 287.665C314.132 287.963 314.098 288.271 313.979 288.55C313.86 288.829 313.661 289.067 313.408 289.233C313.154 289.399 312.858 289.487 312.555 289.484Z" fill="#D7DADD"/>
<path d="M120.98 63.115L37.5501 76.8134C37.4154 76.8355 37.2774 76.8031 37.1665 76.7232C37.0556 76.6434 36.9809 76.5227 36.9588 76.3877L26.8176 14.3743C26.7955 14.2393 26.8279 14.101 26.9076 13.9899C26.9872 13.8788 27.1077 13.8039 27.2424 13.7818L110.672 0.0834262C110.806 0.0640433 110.943 0.0975584 111.053 0.176914C111.164 0.25627 111.239 0.375302 111.263 0.509069L121.405 62.5225C121.427 62.6575 121.394 62.7958 121.315 62.9069C121.235 63.018 121.115 63.0928 120.98 63.115ZM37.8917 75.7118L120.305 62.1803L110.331 1.18496L27.9169 14.7165L37.8917 75.7118Z" fill="#787A80"/>
<path d="M44.4842 63.1411L44.3826 63.1578C37.0591 64.1198 33.9203 57.4947 33.8883 57.4268C33.8594 57.3629 33.8432 57.2939 33.8409 57.2238C33.8386 57.1537 33.85 57.0837 33.8747 57.0181C33.8993 56.9524 33.9366 56.8922 33.9844 56.8409C34.0322 56.7897 34.0897 56.7484 34.1534 56.7194C34.2172 56.6904 34.286 56.6742 34.356 56.6719C34.426 56.6695 34.4958 56.681 34.5613 56.7057C34.6269 56.7304 34.687 56.7677 34.7381 56.8157C34.7893 56.8636 34.8305 56.9212 34.8594 56.9851C34.9738 57.2381 37.7291 62.9852 44.2873 62.128L44.3177 62.123C47.5285 61.5958 48.3842 52.6003 49.122 44.6069C49.8554 36.332 50.6605 28.4948 53.8362 27.1788C54.4606 26.8887 55.1377 26.7299 55.8257 26.7122C56.5137 26.6945 57.198 26.8184 57.8363 27.0761C61.0876 28.4555 63.0578 33.4847 65.3948 39.2901C66.6233 42.6008 68.0642 45.8284 69.7085 48.9527C72.279 53.5697 76.0892 56.07 79.2198 55.1797C83.0973 54.0725 85.1789 48.0435 84.7616 39.048C83.5823 13.398 91.849 9.20749 95.4324 8.59822L95.5645 8.57653C104.547 7.10176 109.981 11.1754 114.932 23.0752C114.958 23.1396 114.971 23.2084 114.971 23.278C114.971 23.3475 114.957 23.4162 114.93 23.4803C114.876 23.6098 114.773 23.7124 114.643 23.7656C114.513 23.8188 114.368 23.8182 114.239 23.7639C114.109 23.7096 114.007 23.6062 113.954 23.4762C109.163 11.9788 104.215 8.20162 95.7005 9.59966L95.5785 9.61968C88.6184 10.7625 84.949 21.8195 85.7773 39.0066C86.2267 48.6451 83.933 54.9076 79.4862 56.1709C75.9101 57.2076 71.6062 54.4957 68.7999 49.4573C67.1395 46.3076 65.6807 43.0552 64.4322 39.72C62.3022 34.3511 60.2949 29.2861 57.424 28.0638C56.9111 27.8589 56.3614 27.7627 55.8096 27.7813C55.2577 27.7999 54.7157 27.933 54.2177 28.1721C51.5996 29.2606 50.8273 37.4897 50.1457 44.742C49.2287 53.873 48.4571 62.4888 44.4842 63.1411Z" fill="#787A80"/>
<path d="M109.083 39.1637L97.4284 41.0773C97.2937 41.0994 97.1557 41.067 97.0448 40.9872C96.9339 40.9074 96.8592 40.7866 96.8372 40.6516C96.8151 40.5166 96.8474 40.3784 96.9271 40.2673C97.0067 40.1561 97.1272 40.0813 97.2619 40.0592L108.916 38.1456C109.051 38.1235 109.189 38.1559 109.3 38.2357C109.411 38.3156 109.485 38.4363 109.508 38.5713C109.53 38.7063 109.497 38.8446 109.418 38.9557C109.338 39.0668 109.218 39.1416 109.083 39.1637Z" fill="#D7DADD"/>
<path d="M109.868 43.9782L98.2136 45.8917C98.0789 45.9139 97.9408 45.8814 97.83 45.8016C97.7191 45.7218 97.6444 45.6011 97.6223 45.4661C97.6002 45.3311 97.6326 45.1928 97.7122 45.0817C97.7919 44.9706 97.9124 44.8957 98.0471 44.8736L109.701 42.9601C109.836 42.938 109.974 42.9704 110.085 43.0502C110.196 43.13 110.271 43.2507 110.293 43.3857C110.315 43.5207 110.282 43.659 110.203 43.7701C110.123 43.8812 110.003 43.9561 109.868 43.9782Z" fill="#D7DADD"/>
<path d="M104.821 49.7307L98.9987 50.6867C98.864 50.7088 98.726 50.6764 98.6151 50.5965C98.5042 50.5167 98.4295 50.396 98.4075 50.261C98.3854 50.126 98.4177 49.9877 98.4974 49.8766C98.577 49.7655 98.6975 49.6907 98.8323 49.6685L104.654 48.7126C104.789 48.6905 104.927 48.7229 105.038 48.8027C105.149 48.8826 105.224 49.0032 105.246 49.1382C105.268 49.2733 105.235 49.4115 105.156 49.5226C105.076 49.6337 104.956 49.7086 104.821 49.7307Z" fill="#D7DADD"/>
<path d="M48.4812 17.3942L36.8269 19.3077C36.6921 19.3299 36.5541 19.2974 36.4433 19.2176C36.3324 19.1378 36.2577 19.0171 36.2356 18.8821C36.2135 18.7471 36.2459 18.6088 36.3255 18.4977C36.4052 18.3866 36.5256 18.3118 36.6604 18.2896L48.3147 16.3761C48.4495 16.354 48.5875 16.3864 48.6983 16.4662C48.8092 16.546 48.8839 16.6667 48.906 16.8017C48.9254 16.9364 48.8919 17.0733 48.8127 17.1837C48.7335 17.2942 48.6147 17.3696 48.4812 17.3942Z" fill="#D7DADD"/>
<path d="M49.2781 22.2614L37.6237 24.1749C37.489 24.1971 37.351 24.1646 37.2401 24.0848C37.1293 24.005 37.0545 23.8843 37.0325 23.7493C37.0104 23.6143 37.0427 23.476 37.1224 23.3649C37.2021 23.2538 37.3225 23.1789 37.4573 23.1568L49.1116 21.2433C49.246 21.2239 49.3826 21.2574 49.4928 21.3368C49.603 21.4161 49.6783 21.5352 49.7029 21.6689C49.725 21.8039 49.6926 21.9422 49.6129 22.0533C49.5333 22.1644 49.4128 22.2393 49.2781 22.2614Z" fill="#D7DADD"/>
<path d="M44.2271 27.9924L38.405 28.9484C38.2703 28.9705 38.1323 28.9381 38.0214 28.8582C37.9105 28.7784 37.8358 28.6577 37.8137 28.5227C37.7916 28.3877 37.824 28.2494 37.9037 28.1383C37.9833 28.0272 38.1038 27.9524 38.2385 27.9303L44.0606 26.9743C44.1954 26.9522 44.3333 26.9846 44.4442 27.0644C44.5551 27.1443 44.6298 27.265 44.6519 27.4C44.674 27.535 44.6416 27.6732 44.562 27.7843C44.4823 27.8955 44.3618 27.9703 44.2271 27.9924Z" fill="#D7DADD"/>
<path d="M46.8706 271.012L0.996142 254.771L12.9805 220.783L13.8127 221.078L2.12293 254.23L47.1652 270.176L46.8706 271.012Z" fill="#00F0B5"/>
<path d="M20.0737 242.376L14.6807 240.467L8.97273 256.654L14.3658 258.564L20.0737 242.376Z" fill="#00F0B5"/>
<path d="M33.5659 239.214L28.1729 237.305L19.9761 260.55L25.3692 262.46L33.5659 239.214Z" fill="#00F0B5"/>
<path d="M47.4126 238.46L42.0195 236.551L32.0498 264.825L37.4428 266.734L47.4126 238.46Z" fill="#00F0B5"/>
</svg>
