<svg width="570" height="379" viewBox="0 0 570 379" fill="none" xmlns="http://www.w3.org/2000/svg">
<path opacity="0.6" d="M342.966 113.502V331.021C342.966 339.065 333.932 345.601 322.753 345.601H21.1106C9.96166 345.601 0.882812 339.065 0.882812 331.021V113.502C0.882812 105.458 9.96166 98.9229 21.1106 98.9229H322.753C333.946 98.9229 342.966 105.458 342.966 113.502Z" fill="white"/>
<path d="M322.653 346.339H21.0101C9.44711 346.339 0.0429688 339.463 0.0429688 331.02V113.486C0.0429688 105.043 9.44711 98.1826 21.0101 98.1826H322.653C334.201 98.1826 343.605 105.043 343.605 113.486V331.02C343.605 339.537 334.201 346.339 322.653 346.339ZM21.0101 99.6612C10.2604 99.6612 1.52161 105.857 1.52161 113.486V331.02C1.52161 338.65 10.2604 344.86 21.0101 344.86H322.653C333.387 344.86 342.126 338.65 342.126 331.02V113.486C342.126 105.857 333.387 99.6612 322.653 99.6612H21.0101Z" fill="#787A80"/>
<path d="M342.766 113.502V124.947H0.742188V113.502C0.742188 105.458 9.82104 98.9229 20.97 98.9229H322.612C333.747 98.9229 342.766 105.458 342.766 113.502Z" fill="#D7DADD"/>
<path d="M342.764 125.685H0.73932C0.54324 125.685 0.355191 125.607 0.216541 125.468C0.0778919 125.33 0 125.142 0 124.946V113.486C0 105.043 9.40415 98.1826 20.9671 98.1826H322.61C334.158 98.1826 343.562 105.043 343.562 113.486V124.946C343.562 125.048 343.541 125.149 343.501 125.243C343.46 125.337 343.4 125.421 343.325 125.49C343.25 125.56 343.161 125.613 343.065 125.647C342.968 125.68 342.865 125.693 342.764 125.685ZM1.46385 124.206H342.039V113.486C342.039 105.857 333.3 99.6612 322.565 99.6612H20.9227C10.173 99.6612 1.43428 105.857 1.43428 113.486L1.46385 124.206Z" fill="#787A80"/>
<path d="M321.025 179.921H201.699V299.245H321.025V179.921Z" fill="#D7DADD"/>
<path d="M165.237 182.894H32.5V185.851H165.237V182.894Z" fill="#00F0B5"/>
<path d="M120.79 191.735H32.5V194.693H120.79V191.735Z" fill="#00F0B5"/>
<path d="M174.849 200.562H32.5V203.52H174.849V200.562Z" fill="#9A9CA5"/>
<path d="M157.622 209.404H32.5V212.362H157.622V209.404Z" fill="#9A9CA5"/>
<path d="M52.327 218.838H33.5039V220.317H52.327V218.838Z" fill="#9A9CA5"/>
<path d="M68.2377 218.838H57.8281V220.317H68.2377V218.838Z" fill="#9A9CA5"/>
<path d="M83.0977 218.838H73.043V220.317H83.0977V218.838Z" fill="#9A9CA5"/>
<path d="M136.611 236.271H32.5V239.228H136.611V236.271Z" fill="#00F0B5"/>
<path d="M157.622 245.112H32.5V248.07H157.622V245.112Z" fill="#00F0B5"/>
<path d="M116.191 253.94H32.5V256.898H116.191V253.94Z" fill="#9A9CA5"/>
<path d="M142.215 262.782H32.5V265.74H142.215V262.782Z" fill="#9A9CA5"/>
<path d="M42.9081 272.216H33.5039V273.695H42.9081V272.216Z" fill="#9A9CA5"/>
<path d="M68.2384 272.216H47.7148V273.695H68.2384V272.216Z" fill="#9A9CA5"/>
<path d="M79.8447 272.216H73.043V273.695H79.8447V272.216Z" fill="#9A9CA5"/>
<path d="M148.913 289.648H32.5V292.606H148.913V289.648Z" fill="#00F0B5"/>
<path d="M165.237 298.49H32.5V301.448H165.237V298.49Z" fill="#00F0B5"/>
<path d="M123.392 307.319H32.5V310.277H123.392V307.319Z" fill="#9A9CA5"/>
<path d="M107.378 316.146H32.5V319.103H107.378V316.146Z" fill="#9A9CA5"/>
<path d="M57.9754 325.593H33.5039V327.072H57.9754V325.593Z" fill="#9A9CA5"/>
<path d="M78.0744 325.593H64.2344V327.072H78.0744V325.593Z" fill="#9A9CA5"/>
<path d="M23.5358 116.799C26.2306 116.799 28.4153 114.615 28.4153 111.92C28.4153 109.225 26.2306 107.04 23.5358 107.04C20.8409 107.04 18.6562 109.225 18.6562 111.92C18.6562 114.615 20.8409 116.799 23.5358 116.799Z" fill="#00F0B5"/>
<path d="M38.2115 116.799C40.9064 116.799 43.091 114.615 43.091 111.92C43.091 109.225 40.9064 107.04 38.2115 107.04C35.5167 107.04 33.332 109.225 33.332 111.92C33.332 114.615 35.5167 116.799 38.2115 116.799Z" fill="white"/>
<path d="M52.8756 116.799C55.5705 116.799 57.7551 114.615 57.7551 111.92C57.7551 109.225 55.5705 107.04 52.8756 107.04C50.1807 107.04 47.9961 109.225 47.9961 111.92C47.9961 114.615 50.1807 116.799 52.8756 116.799Z" fill="white"/>
<path d="M363.935 221.146H242.523V311.208H363.935V221.146Z" fill="#F9F9F9"/>
<path d="M363.94 311.946H242.528C242.332 311.946 242.144 311.869 242.006 311.73C241.867 311.591 241.789 311.403 241.789 311.207V221.145C241.789 220.949 241.867 220.76 242.006 220.622C242.144 220.483 242.332 220.405 242.528 220.405H363.94C364.134 220.409 364.32 220.488 364.458 220.626C364.596 220.764 364.675 220.95 364.679 221.145V311.207C364.679 311.403 364.601 311.591 364.462 311.73C364.324 311.869 364.136 311.946 363.94 311.946ZM243.268 310.468H363.2V221.884H243.268V310.468Z" fill="#1E212C"/>
<path d="M255.523 294.218H255.375C244.774 293.878 241.861 283.779 241.831 283.675C241.805 283.578 241.798 283.477 241.811 283.377C241.824 283.277 241.856 283.181 241.907 283.094C241.957 283.007 242.023 282.93 242.103 282.869C242.183 282.808 242.274 282.762 242.371 282.736C242.468 282.71 242.569 282.703 242.669 282.716C242.769 282.729 242.865 282.762 242.952 282.812C243.039 282.862 243.116 282.929 243.177 283.008C243.239 283.088 243.284 283.179 243.31 283.276C243.413 283.66 245.986 292.429 255.479 292.739H255.523C260.196 292.739 263.493 280.215 266.391 269.081C269.349 257.548 272.306 246.651 277.112 245.527C278.064 245.261 279.06 245.194 280.039 245.329C281.018 245.464 281.959 245.798 282.804 246.311C287.092 249.016 288.719 256.587 290.685 265.34C291.659 270.308 292.953 275.208 294.559 280.008C297.132 287.135 301.953 291.556 306.596 291.024C312.348 290.359 316.695 282.315 318.188 269.495C322.461 232.944 335.148 228.937 340.368 228.907H340.56C353.631 228.907 360.388 235.931 364.647 253.911C364.669 254.008 364.672 254.108 364.656 254.207C364.639 254.305 364.604 254.399 364.551 254.483C364.444 254.654 364.274 254.775 364.078 254.82C363.882 254.865 363.676 254.83 363.505 254.724C363.335 254.617 363.213 254.447 363.168 254.251C359.043 236.877 352.907 230.386 340.516 230.386H340.338C330.209 230.386 322.447 245.172 319.637 269.673C318.04 283.409 313.338 291.734 306.743 292.488C301.435 293.124 295.964 288.288 293.155 280.511C291.532 275.671 290.218 270.732 289.222 265.725C287.447 257.637 285.776 250.007 281.991 247.612C281.312 247.203 280.555 246.939 279.768 246.837C278.982 246.735 278.183 246.798 277.422 247.02C273.459 247.952 270.458 259.411 267.811 269.51C264.395 282.211 261.305 294.218 255.523 294.218Z" fill="#00F0B5"/>
<path d="M271.789 230.445H254.829C254.633 230.445 254.445 230.368 254.306 230.229C254.168 230.09 254.09 229.902 254.09 229.706C254.09 229.51 254.168 229.322 254.306 229.183C254.445 229.045 254.633 228.967 254.829 228.967H271.789C271.985 228.967 272.173 229.045 272.312 229.183C272.451 229.322 272.528 229.51 272.528 229.706C272.525 229.901 272.446 230.087 272.308 230.225C272.17 230.363 271.984 230.442 271.789 230.445Z" fill="#B3B7BC"/>
<path d="M271.789 237.513H254.829C254.633 237.513 254.445 237.435 254.306 237.296C254.168 237.158 254.09 236.97 254.09 236.774C254.09 236.577 254.168 236.389 254.306 236.251C254.445 236.112 254.633 236.034 254.829 236.034H271.789C271.984 236.038 272.17 236.117 272.308 236.255C272.446 236.393 272.525 236.579 272.528 236.774C272.528 236.97 272.451 237.158 272.312 237.296C272.173 237.435 271.985 237.513 271.789 237.513Z" fill="#B3B7BC"/>
<path d="M263.302 244.449H254.829C254.633 244.449 254.445 244.371 254.306 244.233C254.168 244.094 254.09 243.906 254.09 243.71C254.09 243.514 254.168 243.326 254.306 243.187C254.445 243.049 254.633 242.971 254.829 242.971H263.302C263.498 242.971 263.686 243.049 263.825 243.187C263.963 243.326 264.041 243.514 264.041 243.71C264.041 243.906 263.963 244.094 263.825 244.233C263.686 244.371 263.498 244.449 263.302 244.449Z" fill="#B3B7BC"/>
<path d="M116.381 153.894V158.135H115.012V147.971H117.884C118.527 147.971 119.083 148.037 119.551 148.17C120.019 148.297 120.405 148.484 120.707 148.73C121.015 148.976 121.242 149.274 121.388 149.624C121.535 149.969 121.608 150.357 121.608 150.787C121.608 151.146 121.551 151.482 121.438 151.794C121.324 152.106 121.159 152.388 120.941 152.638C120.729 152.884 120.466 153.095 120.154 153.269C119.847 153.444 119.497 153.577 119.104 153.667C119.275 153.766 119.426 153.91 119.558 154.099L122.523 158.135H121.303C121.053 158.135 120.868 158.038 120.75 157.845L118.111 154.213C118.031 154.099 117.943 154.019 117.849 153.972C117.754 153.92 117.612 153.894 117.423 153.894H116.381ZM116.381 152.894H117.821C118.222 152.894 118.575 152.846 118.877 152.752C119.185 152.652 119.44 152.515 119.643 152.34C119.851 152.161 120.007 151.948 120.112 151.702C120.216 151.456 120.268 151.184 120.268 150.886C120.268 150.281 120.067 149.825 119.665 149.517C119.267 149.21 118.674 149.056 117.884 149.056H116.381V152.894Z" fill="#424551"/>
<path d="M131.61 147.971V149.092H126.73V152.468H130.681V153.546H126.73V157.015H131.61V158.135H125.347V147.971H131.61Z" fill="#424551"/>
<path d="M142.101 156.036C142.177 156.036 142.245 156.067 142.307 156.128L142.846 156.717C142.43 157.199 141.924 157.575 141.328 157.845C140.737 158.114 140.023 158.249 139.186 158.249C138.453 158.249 137.789 158.124 137.193 157.873C136.597 157.618 136.089 157.263 135.668 156.809C135.247 156.35 134.921 155.802 134.689 155.163C134.457 154.525 134.341 153.823 134.341 153.057C134.341 152.291 134.464 151.588 134.71 150.95C134.961 150.312 135.311 149.763 135.76 149.304C136.209 148.846 136.746 148.491 137.37 148.24C137.999 147.985 138.692 147.857 139.448 147.857C140.195 147.857 140.839 147.973 141.378 148.205C141.921 148.437 142.404 148.751 142.825 149.148L142.378 149.78C142.345 149.827 142.307 149.867 142.264 149.9C142.222 149.929 142.16 149.943 142.08 149.943C142.018 149.943 141.952 149.922 141.881 149.879C141.815 149.832 141.735 149.775 141.64 149.709C141.545 149.643 141.434 149.572 141.307 149.496C141.179 149.42 141.028 149.349 140.853 149.283C140.678 149.217 140.474 149.163 140.243 149.12C140.011 149.073 139.744 149.049 139.441 149.049C138.897 149.049 138.399 149.144 137.945 149.333C137.495 149.517 137.108 149.782 136.781 150.127C136.455 150.472 136.2 150.893 136.015 151.39C135.836 151.886 135.746 152.442 135.746 153.057C135.746 153.69 135.836 154.255 136.015 154.752C136.2 155.248 136.448 155.669 136.76 156.015C137.077 156.355 137.45 156.615 137.881 156.795C138.311 156.974 138.774 157.064 139.271 157.064C139.574 157.064 139.846 157.048 140.087 157.015C140.328 156.977 140.55 156.92 140.753 156.844C140.961 156.769 141.153 156.674 141.328 156.561C141.508 156.442 141.687 156.303 141.867 156.142C141.947 156.071 142.025 156.036 142.101 156.036Z" fill="#424551"/>
<path d="M152.259 147.971V149.092H147.379V152.468H151.33V153.546H147.379V157.015H152.259V158.135H145.996V147.971H152.259Z" fill="#424551"/>
<path d="M156.296 147.971C156.419 147.971 156.508 147.987 156.565 148.021C156.627 148.049 156.695 148.11 156.771 148.205L162.658 155.866C162.644 155.743 162.634 155.624 162.63 155.511C162.625 155.393 162.623 155.279 162.623 155.17V147.971H163.828V158.135H163.133C163.024 158.135 162.932 158.116 162.857 158.079C162.786 158.041 162.715 157.977 162.644 157.887L156.764 150.234C156.773 150.352 156.78 150.468 156.785 150.581C156.79 150.695 156.792 150.799 156.792 150.893V158.135H155.586V147.971H156.296Z" fill="#424551"/>
<path d="M174.579 147.971V149.127H171.295V158.135H169.919V149.127H166.621V147.971H174.579Z" fill="#424551"/>
<path d="M182.973 154.333V158.135H181.604V147.971H184.604C185.247 147.971 185.805 148.047 186.278 148.198C186.756 148.344 187.151 148.555 187.463 148.829C187.775 149.103 188.007 149.434 188.158 149.822C188.314 150.21 188.392 150.643 188.392 151.12C188.392 151.593 188.309 152.026 188.144 152.418C187.978 152.811 187.735 153.149 187.413 153.433C187.096 153.716 186.701 153.939 186.229 154.099C185.756 154.255 185.214 154.333 184.604 154.333H182.973ZM182.973 153.241H184.604C184.997 153.241 185.342 153.189 185.64 153.085C185.943 152.981 186.196 152.837 186.399 152.652C186.602 152.463 186.756 152.239 186.86 151.979C186.964 151.718 187.016 151.432 187.016 151.12C187.016 150.472 186.815 149.966 186.413 149.602C186.016 149.238 185.413 149.056 184.604 149.056H182.973V153.241Z" fill="#424551"/>
<path d="M200.923 153.057C200.923 153.818 200.802 154.518 200.561 155.156C200.32 155.79 199.979 156.336 199.54 156.795C199.1 157.253 198.57 157.61 197.951 157.866C197.336 158.116 196.655 158.242 195.908 158.242C195.161 158.242 194.48 158.116 193.865 157.866C193.251 157.61 192.723 157.253 192.284 156.795C191.844 156.336 191.503 155.79 191.262 155.156C191.021 154.518 190.9 153.818 190.9 153.057C190.9 152.295 191.021 151.598 191.262 150.964C191.503 150.326 191.844 149.777 192.284 149.319C192.723 148.855 193.251 148.496 193.865 148.24C194.48 147.985 195.161 147.857 195.908 147.857C196.655 147.857 197.336 147.985 197.951 148.24C198.57 148.496 199.1 148.855 199.54 149.319C199.979 149.777 200.32 150.326 200.561 150.964C200.802 151.598 200.923 152.295 200.923 153.057ZM199.511 153.057C199.511 152.432 199.426 151.872 199.256 151.376C199.086 150.879 198.844 150.461 198.532 150.12C198.22 149.775 197.842 149.51 197.397 149.326C196.953 149.141 196.456 149.049 195.908 149.049C195.364 149.049 194.87 149.141 194.426 149.326C193.981 149.51 193.6 149.775 193.284 150.12C192.972 150.461 192.73 150.879 192.56 151.376C192.39 151.872 192.305 152.432 192.305 153.057C192.305 153.681 192.39 154.241 192.56 154.738C192.73 155.23 192.972 155.648 193.284 155.993C193.6 156.334 193.981 156.596 194.426 156.781C194.87 156.96 195.364 157.05 195.908 157.05C196.456 157.05 196.953 156.96 197.397 156.781C197.842 156.596 198.22 156.334 198.532 155.993C198.844 155.648 199.086 155.23 199.256 154.738C199.426 154.241 199.511 153.681 199.511 153.057Z" fill="#424551"/>
<path d="M209.354 149.56C209.311 149.631 209.267 149.685 209.219 149.723C209.172 149.756 209.11 149.773 209.035 149.773C208.954 149.773 208.86 149.732 208.751 149.652C208.647 149.572 208.512 149.484 208.347 149.39C208.186 149.29 207.99 149.2 207.758 149.12C207.531 149.04 207.255 148.999 206.928 148.999C206.621 148.999 206.349 149.042 206.113 149.127C205.876 149.207 205.678 149.319 205.517 149.46C205.361 149.602 205.242 149.77 205.162 149.964C205.082 150.153 205.042 150.359 205.042 150.581C205.042 150.865 205.11 151.101 205.247 151.29C205.389 151.475 205.573 151.633 205.8 151.766C206.032 151.898 206.292 152.014 206.581 152.113C206.874 152.208 207.172 152.307 207.474 152.411C207.782 152.515 208.08 152.633 208.368 152.766C208.661 152.894 208.921 153.057 209.148 153.255C209.38 153.454 209.564 153.697 209.702 153.986C209.843 154.274 209.914 154.629 209.914 155.05C209.914 155.494 209.839 155.913 209.687 156.305C209.536 156.693 209.314 157.031 209.021 157.32C208.732 157.608 208.375 157.835 207.95 158.001C207.529 158.166 207.049 158.249 206.51 158.249C205.852 158.249 205.252 158.131 204.708 157.894C204.169 157.653 203.708 157.329 203.325 156.922L203.722 156.27C203.76 156.218 203.805 156.175 203.857 156.142C203.914 156.104 203.975 156.085 204.041 156.085C204.141 156.085 204.254 156.14 204.382 156.249C204.51 156.353 204.668 156.468 204.857 156.596C205.051 156.724 205.283 156.842 205.552 156.951C205.826 157.055 206.16 157.107 206.552 157.107C206.879 157.107 207.169 157.062 207.425 156.972C207.68 156.882 207.895 156.757 208.07 156.596C208.25 156.431 208.387 156.234 208.482 156.007C208.576 155.78 208.623 155.527 208.623 155.248C208.623 154.941 208.553 154.69 208.411 154.497C208.274 154.298 208.091 154.132 207.865 154C207.638 153.868 207.377 153.757 207.084 153.667C206.796 153.572 206.498 153.478 206.191 153.383C205.888 153.284 205.59 153.17 205.297 153.042C205.008 152.915 204.751 152.749 204.524 152.546C204.297 152.343 204.112 152.09 203.97 151.787C203.833 151.48 203.765 151.101 203.765 150.652C203.765 150.293 203.833 149.945 203.97 149.609C204.112 149.274 204.316 148.976 204.58 148.716C204.845 148.456 205.172 148.248 205.559 148.091C205.952 147.935 206.401 147.857 206.907 147.857C207.474 147.857 207.992 147.947 208.46 148.127C208.928 148.307 209.337 148.567 209.687 148.907L209.354 149.56Z" fill="#424551"/>
<path d="M219.94 147.971V149.127H216.656V158.135H215.28V149.127H211.982V147.971H219.94Z" fill="#424551"/>
<path d="M227.939 149.56C227.896 149.631 227.852 149.685 227.804 149.723C227.757 149.756 227.696 149.773 227.62 149.773C227.539 149.773 227.445 149.732 227.336 149.652C227.232 149.572 227.097 149.484 226.932 149.39C226.771 149.29 226.575 149.2 226.343 149.12C226.116 149.04 225.84 148.999 225.513 148.999C225.206 148.999 224.934 149.042 224.698 149.127C224.461 149.207 224.263 149.319 224.102 149.46C223.946 149.602 223.828 149.77 223.747 149.964C223.667 150.153 223.627 150.359 223.627 150.581C223.627 150.865 223.695 151.101 223.832 151.29C223.974 151.475 224.159 151.633 224.386 151.766C224.617 151.898 224.877 152.014 225.166 152.113C225.459 152.208 225.757 152.307 226.059 152.411C226.367 152.515 226.665 152.633 226.953 152.766C227.246 152.894 227.506 153.057 227.733 153.255C227.965 153.454 228.149 153.697 228.287 153.986C228.428 154.274 228.499 154.629 228.499 155.05C228.499 155.494 228.424 155.913 228.272 156.305C228.121 156.693 227.899 157.031 227.606 157.32C227.317 157.608 226.96 157.835 226.535 158.001C226.114 158.166 225.634 158.249 225.095 158.249C224.438 158.249 223.837 158.131 223.293 157.894C222.754 157.653 222.293 157.329 221.91 156.922L222.307 156.27C222.345 156.218 222.39 156.175 222.442 156.142C222.499 156.104 222.56 156.085 222.626 156.085C222.726 156.085 222.839 156.14 222.967 156.249C223.095 156.353 223.253 156.468 223.442 156.596C223.636 156.724 223.868 156.842 224.137 156.951C224.412 157.055 224.745 157.107 225.137 157.107C225.464 157.107 225.754 157.062 226.01 156.972C226.265 156.882 226.48 156.757 226.655 156.596C226.835 156.431 226.972 156.234 227.067 156.007C227.161 155.78 227.208 155.527 227.208 155.248C227.208 154.941 227.138 154.69 226.996 154.497C226.859 154.298 226.677 154.132 226.45 154C226.223 153.868 225.962 153.757 225.669 153.667C225.381 153.572 225.083 153.478 224.776 153.383C224.473 153.284 224.175 153.17 223.882 153.042C223.593 152.915 223.336 152.749 223.109 152.546C222.882 152.343 222.697 152.09 222.556 151.787C222.418 151.48 222.35 151.101 222.35 150.652C222.35 150.293 222.418 149.945 222.556 149.609C222.697 149.274 222.901 148.976 223.166 148.716C223.43 148.456 223.757 148.248 224.144 148.091C224.537 147.935 224.986 147.857 225.492 147.857C226.059 147.857 226.577 147.947 227.045 148.127C227.513 148.307 227.923 148.567 228.272 148.907L227.939 149.56Z" fill="#424551"/>
<path d="M291.262 69.0618L258.576 57.5947L265.982 36.3678L298.669 47.8349L291.262 69.0618ZM260.295 56.7694L290.348 67.3225L296.863 48.642L266.81 38.089L260.295 56.7694Z" fill="#1E212C"/>
<path d="M269.362 44.5017L268.922 45.7646L290.815 53.4075L291.255 52.1445L269.362 44.5017Z" fill="#1E212C"/>
<path d="M267.245 51.2478L266.805 52.5107L288.697 60.1559L289.137 58.8929L267.245 51.2478Z" fill="#1E212C"/>
<path d="M98.1789 39.5572C100.007 43.1886 102.854 46.2079 106.369 48.2437C109.884 50.2795 113.914 51.243 117.963 51.0157C122.012 50.7884 125.903 49.3802 129.159 46.9643C132.414 44.5483 134.891 41.2301 136.285 37.4178C137.679 33.6055 137.93 29.4654 137.005 25.5067C136.081 21.5481 134.023 17.9436 131.083 15.1367C128.144 12.3298 124.452 10.4429 120.461 9.70815C116.47 8.97338 112.355 9.42278 108.622 11.0011L117.984 29.5704L98.1789 39.5572Z" fill="#00F0B5"/>
<path d="M95.0743 38.414L114.88 28.4271L105.507 9.83699C105.091 10.0062 104.662 10.2074 104.248 10.4166C101.808 11.6466 99.6361 13.3465 97.855 15.4193C96.0738 17.4921 94.7186 19.8972 93.8667 22.4972C93.0149 25.0971 92.6831 27.841 92.8903 30.572C93.0975 33.3031 93.8396 35.9678 95.0743 38.414Z" fill="#D7DADD"/>
<path d="M174.321 330.684L174.144 330.216L173.677 330.392L134.172 345.261L133.704 345.437L133.88 345.905L145.775 377.51L145.951 377.978L146.419 377.802L185.924 362.934L186.392 362.757L186.216 362.289L174.321 330.684Z" fill="white" stroke="#424551"/>
<path d="M185.904 362.884L146.399 377.752C146.288 377.791 146.166 377.786 146.058 377.737C145.951 377.688 145.866 377.6 145.823 377.491L133.927 345.885C133.885 345.774 133.889 345.651 133.938 345.543C133.987 345.435 134.077 345.351 134.188 345.309L173.693 330.441C173.804 330.399 173.927 330.403 174.035 330.452C174.143 330.501 174.228 330.591 174.269 330.702L186.165 362.307C186.204 362.419 186.199 362.541 186.15 362.648C186.101 362.755 186.013 362.84 185.904 362.884ZM146.502 376.757L185.17 362.204L173.59 331.436L134.922 345.989L146.502 376.757Z" fill="white"/>
<path d="M143.47 370.473C143.388 370.504 143.298 370.51 143.213 370.49C143.127 370.471 143.049 370.426 142.989 370.362C142.928 370.299 142.888 370.219 142.872 370.132C142.857 370.046 142.867 369.957 142.902 369.876L150.954 352.071C151.194 351.544 151.539 351.071 151.97 350.683C152.401 350.296 152.907 350.001 153.457 349.819C154.007 349.636 154.589 349.569 155.166 349.622C155.743 349.676 156.302 349.847 156.81 350.127L171.697 358.322C171.803 358.373 171.885 358.463 171.927 358.573C171.968 358.683 171.966 358.805 171.919 358.914C171.892 358.966 171.854 359.013 171.809 359.051C171.763 359.088 171.71 359.116 171.653 359.133C171.596 359.149 171.536 359.154 171.477 359.147C171.419 359.14 171.362 359.121 171.311 359.091L156.412 350.921C156.015 350.696 155.574 350.558 155.12 350.516C154.665 350.474 154.207 350.529 153.775 350.677C153.341 350.82 152.941 351.052 152.602 351.359C152.263 351.666 151.992 352.04 151.806 352.457L143.727 370.272C143.671 370.371 143.579 370.443 143.47 370.473Z" fill="#424551"/>
<path d="M182.024 352.546C181.966 352.568 181.903 352.578 181.841 352.575C181.779 352.571 181.718 352.554 181.663 352.526L173.966 348.638C173.56 348.432 173.115 348.313 172.661 348.289C172.206 348.266 171.752 348.337 171.327 348.499C170.898 348.658 170.507 348.906 170.18 349.226C169.853 349.546 169.597 349.931 169.428 350.356L167.054 356.195C167.033 356.25 167 356.299 166.959 356.341C166.918 356.384 166.87 356.417 166.816 356.44C166.762 356.464 166.704 356.476 166.645 356.477C166.586 356.478 166.528 356.467 166.473 356.445C166.419 356.423 166.369 356.391 166.327 356.35C166.285 356.309 166.251 356.26 166.228 356.206C166.205 356.152 166.192 356.094 166.191 356.035C166.191 355.977 166.201 355.918 166.223 355.864L168.57 350.035C168.788 349.496 169.115 349.008 169.53 348.601C169.946 348.195 170.441 347.878 170.984 347.672C171.522 347.476 172.095 347.392 172.666 347.426C173.238 347.459 173.797 347.608 174.309 347.865L182.002 351.743C182.082 351.781 182.148 351.841 182.194 351.916C182.239 351.991 182.262 352.078 182.258 352.166C182.255 352.253 182.225 352.338 182.174 352.409C182.122 352.481 182.051 352.535 181.969 352.566L182.024 352.546Z" fill="#424551"/>
<path d="M163.387 344.865C164.593 344.411 165.203 343.065 164.749 341.858C164.295 340.652 162.949 340.042 161.743 340.496C160.536 340.95 159.927 342.296 160.381 343.503C160.835 344.709 162.181 345.319 163.387 344.865Z" fill="white"/>
<path d="M163.54 345.257C163.024 345.453 162.461 345.492 161.923 345.368C161.384 345.244 160.895 344.964 160.516 344.561C160.138 344.159 159.887 343.654 159.796 343.109C159.704 342.564 159.777 342.005 160.004 341.501C160.231 340.998 160.603 340.573 161.071 340.28C161.54 339.988 162.085 339.842 162.637 339.859C163.189 339.877 163.723 340.058 164.173 340.379C164.622 340.701 164.965 341.148 165.16 341.665C165.42 342.357 165.396 343.123 165.092 343.796C164.788 344.469 164.23 344.994 163.54 345.257ZM161.893 340.879C161.54 341.01 161.235 341.242 161.014 341.547C160.794 341.852 160.67 342.215 160.656 342.591C160.643 342.966 160.742 343.337 160.94 343.657C161.138 343.976 161.427 344.229 161.769 344.385C162.111 344.54 162.492 344.59 162.863 344.528C163.233 344.466 163.578 344.296 163.851 344.038C164.125 343.78 164.316 343.447 164.4 343.081C164.484 342.715 164.457 342.332 164.323 341.98C164.139 341.522 163.783 341.154 163.332 340.955C162.88 340.756 162.368 340.742 161.906 340.916L161.893 340.879Z" fill="#424551"/>
<path d="M449.856 174.348L496.346 157.036L511.799 274.551L569.891 327.211L540.988 375.755L532.975 357.258C411.926 326.352 449.856 174.348 449.856 174.348Z" fill="#00F0B5"/>
<path opacity="0.8" d="M452.327 282.396C458.227 253.395 474.043 232.632 492.631 232.632C497.613 232.632 502.396 234.129 506.843 236.871L511.797 274.549L534.849 295.445C535.214 299.381 535.406 303.418 535.406 307.535C535.406 325.629 531.742 342.225 525.643 355.172C483.517 341.997 462.342 313.212 452.327 282.396Z" fill="#424551"/>
<path d="M461.306 159.851C461.306 159.851 452.641 301.282 477.115 368.244L472.003 375.755H515.533C515.533 375.755 520.289 195.863 520.289 157.036L461.306 159.851Z" fill="#00F0B5"/>
<path d="M475.769 50.4255V68.8057L498.539 74.4018V43.3846L475.769 37.7881V50.4255Z" fill="#D7DADD"/>
<path d="M488.629 56.7841C488.293 56.7841 488.021 56.5115 488.021 56.1752C488.021 55.839 488.293 55.5664 488.629 55.5664C488.966 55.5664 489.238 55.839 489.238 56.1752C489.238 56.5115 488.966 56.7841 488.629 56.7841Z" fill="#1E212C"/>
<path d="M479.274 56.7841C478.938 56.7841 478.665 56.5115 478.665 56.1752C478.665 55.839 478.938 55.5664 479.274 55.5664C479.61 55.5664 479.883 55.839 479.883 56.1752C479.883 56.5115 479.61 56.7841 479.274 56.7841Z" fill="#1E212C"/>
<path fill-rule="evenodd" clip-rule="evenodd" d="M482.5 50.4257C482.5 50.1604 482.285 49.9453 482.02 49.9453H477.32C477.055 49.9453 476.84 50.1604 476.84 50.4257C476.84 50.691 477.055 50.906 477.32 50.906H481.54V59.8081C481.54 60.0734 481.755 60.2885 482.02 60.2885C482.285 60.2885 482.5 60.0734 482.5 59.8081V50.4257Z" fill="#1E212C"/>
<path fill-rule="evenodd" clip-rule="evenodd" d="M490.254 50.4266C490.254 50.1613 490.039 49.9463 489.774 49.9463H485.074C484.809 49.9463 484.594 50.1613 484.594 50.4266C484.594 50.6919 484.809 50.907 485.074 50.907H489.774C490.039 50.907 490.254 50.6919 490.254 50.4266Z" fill="#1E212C"/>
<path d="M497.036 55.2319V58.4902C498.794 58.4902 500.219 57.0654 500.219 55.3078C500.219 55.2102 500.214 55.1136 500.206 55.0181C500.027 53.042 497.036 53.2477 497.036 55.2319Z" fill="#EDEEEF"/>
<path fill-rule="evenodd" clip-rule="evenodd" d="M500.216 54.8262C499.951 54.8262 499.736 55.0412 499.736 55.3065C499.736 56.7983 498.526 58.0086 497.033 58.0086C496.768 58.0086 496.554 58.2236 496.554 58.4889C496.554 58.7542 496.768 58.9693 497.033 58.9693C499.055 58.9693 500.695 57.3299 500.695 55.3065C500.695 55.0412 500.481 54.8262 500.216 54.8262Z" fill="#1E212C"/>
<path fill-rule="evenodd" clip-rule="evenodd" d="M487.294 58.418C487.029 58.418 486.814 58.633 486.814 58.8983C486.814 60.4114 485.587 61.6389 484.073 61.6389C483.808 61.6389 483.593 61.854 483.593 62.1193C483.593 62.3846 483.808 62.5996 484.073 62.5996C486.116 62.5996 487.773 60.943 487.773 58.8983C487.773 58.633 487.559 58.418 487.294 58.418Z" fill="#1E212C"/>
<path fill-rule="evenodd" clip-rule="evenodd" d="M475.3 68.6892C475.237 68.9468 475.394 69.207 475.652 69.2702L498.421 74.8668C498.679 74.9301 498.939 74.7725 499.002 74.5148C499.065 74.2572 498.907 73.9971 498.65 73.9338L475.88 68.3372C475.623 68.274 475.363 68.4315 475.3 68.6892Z" fill="#1E212C"/>
<path fill-rule="evenodd" clip-rule="evenodd" d="M481.549 59.6999C481.486 59.9576 481.644 60.2177 481.901 60.2809L483.957 60.7862C484.214 60.8495 484.474 60.6919 484.537 60.4342C484.6 60.1766 484.443 59.9165 484.185 59.8532L482.13 59.3479C481.872 59.2847 481.612 59.4423 481.549 59.6999Z" fill="#1E212C"/>
<path d="M520.289 107.317V157.037L449.852 174.349V118.974C449.852 99.3389 463.257 82.2405 482.325 77.554H482.325C491.469 75.3065 501.139 77.3873 508.55 83.1969C515.96 89.0066 520.289 97.9003 520.289 107.317V107.317Z" fill="#D7DADD"/>
<path fill-rule="evenodd" clip-rule="evenodd" d="M461.334 159.37C461.07 159.354 460.842 159.555 460.826 159.82L461.305 159.849L461.784 159.879C461.8 159.614 461.599 159.386 461.334 159.37ZM461.305 159.849C461.784 159.879 461.784 159.879 461.784 159.88L461.778 159.981C461.774 160.049 461.768 160.151 461.76 160.285C461.744 160.554 461.721 160.955 461.693 161.48C461.635 162.532 461.554 164.082 461.46 166.08C461.271 170.076 461.028 175.859 460.813 183.009C460.383 197.308 460.065 217.071 460.511 238.925C461.404 282.655 465.358 334.679 477.564 368.077C477.655 368.326 477.528 368.602 477.279 368.693C477.03 368.784 476.754 368.656 476.663 368.407C464.396 334.843 460.445 282.671 459.552 238.945C459.105 217.071 459.424 197.291 459.854 182.98C460.069 175.824 460.312 170.035 460.501 166.035C460.596 164.034 460.677 162.481 460.735 161.428C460.763 160.901 460.786 160.5 460.802 160.229C460.81 160.094 460.816 159.992 460.82 159.924L460.826 159.822C460.826 159.821 460.826 159.82 461.305 159.849Z" fill="#1E212C"/>
<path fill-rule="evenodd" clip-rule="evenodd" d="M474.62 42.7278C474.364 42.7932 474.208 43.0546 474.274 43.3117C474.891 45.7434 476.448 47.0859 478.4 47.7005C480.318 48.3044 482.607 48.2059 484.764 47.8342C486.931 47.4609 489.018 46.8025 490.557 46.2404C491.328 45.9588 491.965 45.7003 492.41 45.5118C492.438 45.5001 492.465 45.4886 492.491 45.4774C492.829 48.8584 493.649 50.9604 494.433 52.2428C494.85 52.9254 495.255 53.3723 495.567 53.6537C495.723 53.7942 495.855 53.8928 495.952 53.9586C496.001 53.9915 496.041 54.0162 496.071 54.0337C496.086 54.0425 496.099 54.0495 496.109 54.0549L496.122 54.0617L496.126 54.0642L496.129 54.0653L496.129 54.0657C496.13 54.066 496.13 54.0662 496.344 53.6363L496.13 54.0662C496.367 54.1845 496.656 54.088 496.774 53.8506C496.891 53.6148 496.797 53.3287 496.563 53.2089M496.559 53.2068L496.56 53.2072L496.561 53.2078L496.563 53.2089C496.564 53.2093 496.564 53.2091 496.563 53.2089C496.563 53.2089 496.563 53.2088 496.563 53.2089C496.562 53.2081 496.559 53.2063 496.553 53.2031C496.541 53.1961 496.519 53.1828 496.489 53.1621C496.427 53.1208 496.331 53.0497 496.209 52.94C495.967 52.7211 495.621 52.3458 495.251 51.7413C494.512 50.5324 493.67 48.3926 493.389 44.7304C493.377 44.5732 493.288 44.4319 493.152 44.3524C493.016 44.273 492.85 44.2654 492.707 44.3322L492.705 44.3332L492.697 44.3368L492.665 44.3516C492.636 44.3648 492.593 44.3846 492.536 44.4101C492.422 44.4612 492.253 44.5355 492.037 44.627C491.604 44.8103 490.982 45.0626 490.229 45.3378C488.719 45.889 486.691 46.5274 484.602 46.8874C482.502 47.2491 480.391 47.3204 478.688 46.7841C477.018 46.2585 475.731 45.1506 475.204 43.075C475.138 42.8179 474.877 42.6624 474.62 42.7278M492.707 44.3322C492.707 44.3322 492.707 44.3322 492.707 44.3322V44.3322Z" fill="#1E212C"/>
<path fill-rule="evenodd" clip-rule="evenodd" d="M500.857 39.5875L498.771 53.5652C498.731 53.8276 498.912 54.0721 499.174 54.1113C499.436 54.1505 499.68 53.9696 499.72 53.7072L501.866 39.3294C501.9 39.1001 501.766 38.8791 501.547 38.8039L501.391 39.2584C501.547 38.8039 501.547 38.804 501.547 38.8039L501.542 38.8023L501.529 38.798L501.48 38.7813C501.437 38.7668 501.373 38.7455 501.29 38.7182C501.123 38.6636 500.879 38.5847 500.566 38.4872C499.941 38.2923 499.042 38.0227 497.942 37.7234C495.744 37.125 492.74 36.4058 489.523 35.926C486.311 35.4467 482.863 35.2027 479.785 35.5669C476.717 35.93 473.94 36.9072 472.163 38.9422C472.116 38.9961 472.081 39.0599 472.062 39.1289L472.524 39.2584C472.062 39.1289 472.062 39.1286 472.062 39.1289L472.062 39.1301L472.061 39.1318L472.06 39.1366L472.056 39.1518C472.053 39.1645 472.048 39.1821 472.043 39.2045C472.032 39.2493 472.017 39.3133 472.001 39.395C471.968 39.5583 471.927 39.7927 471.894 40.0864C471.827 40.6732 471.791 41.5 471.908 42.4706C472.143 44.4179 472.996 46.9354 475.439 49.2384C475.632 49.4203 475.935 49.4111 476.117 49.2179C476.299 49.0248 476.29 48.7208 476.097 48.5389C473.842 46.4138 473.073 44.1162 472.861 42.3554C472.754 41.4719 472.788 40.7213 472.847 40.1944C472.877 39.9312 472.913 39.7246 472.941 39.5861C472.949 39.5484 472.956 39.5158 472.962 39.4885C474.517 37.7698 476.979 36.8664 479.898 36.5209C482.857 36.1708 486.21 36.403 489.382 36.8762C492.55 37.3488 495.516 38.0583 497.691 38.6504C498.777 38.9463 499.666 39.2125 500.281 39.4045C500.513 39.4768 500.707 39.5386 500.857 39.5875Z" fill="#1E212C"/>
<path fill-rule="evenodd" clip-rule="evenodd" d="M504.217 80.3968C504.11 80.6392 504.219 80.923 504.461 81.0307L504.495 80.9539C504.461 81.0307 504.461 81.0307 504.461 81.0307L504.462 81.0313L504.467 81.0335L504.488 81.0432C504.508 81.052 504.537 81.0654 504.576 81.0834C504.654 81.1195 504.771 81.1741 504.925 81.2475C505.231 81.3943 505.683 81.6162 506.26 81.9148C507.413 82.5122 509.067 83.4166 511.061 84.6414C515.05 87.0915 520.396 90.8214 525.821 95.9382C536.671 106.172 547.819 121.933 549.097 144.094C549.414 149.589 548.28 154.156 546.062 157.903C543.842 161.652 540.52 164.608 536.42 166.851C528.208 171.344 516.919 172.952 505.33 172.346C493.748 171.741 481.929 168.927 472.689 164.637C468.069 162.492 464.109 159.985 461.148 157.213C458.186 154.441 456.246 151.426 455.611 148.264C455.583 148.126 455.496 148.006 455.372 147.938L455.371 147.937L455.348 147.925L455.277 147.885C455.228 147.858 455.163 147.821 455.083 147.776C455.059 147.762 455.033 147.747 455.006 147.732C454.773 147.599 454.445 147.408 454.062 147.178C453.293 146.716 452.313 146.099 451.446 145.467C451.013 145.151 450.614 144.836 450.287 144.538C449.955 144.236 449.719 143.973 449.591 143.762C449.513 143.635 449.497 143.567 449.494 143.54C449.522 143.517 449.627 143.446 449.936 143.396C450.34 143.331 451.731 143.273 453.92 143.225C456.086 143.179 458.988 143.143 462.373 143.116C469.142 143.062 477.833 143.045 486.415 143.045C494.996 143.045 503.466 143.062 509.791 143.08C512.953 143.089 515.579 143.098 517.415 143.105C518.332 143.108 519.052 143.111 519.543 143.113L520.294 143.116C520.295 143.116 520.295 143.116 520.297 142.636L520.295 143.116C520.485 143.117 520.658 143.005 520.735 142.831C520.812 142.658 520.78 142.454 520.652 142.313L501.748 121.423C501.57 121.227 501.267 121.212 501.071 121.39C500.874 121.568 500.859 121.872 501.037 122.068L519.211 142.151C518.748 142.149 518.145 142.147 517.418 142.144C515.583 142.138 512.956 142.129 509.794 142.12C503.468 142.102 494.997 142.084 486.415 142.084C477.833 142.084 469.138 142.102 462.365 142.155C458.979 142.182 456.072 142.218 453.899 142.265C451.749 142.312 450.271 142.369 449.784 142.448C449.31 142.524 448.851 142.694 448.639 143.095C448.416 143.518 448.585 143.958 448.772 144.264C448.972 144.59 449.286 144.925 449.642 145.249C450.003 145.578 450.432 145.915 450.881 146.243C451.781 146.899 452.789 147.533 453.568 148.002C453.958 148.236 454.293 148.43 454.53 148.566C454.601 148.607 454.664 148.642 454.716 148.672C455.446 152.009 457.503 155.117 460.493 157.915C463.549 160.775 467.603 163.334 472.285 165.508C481.649 169.856 493.591 172.695 505.28 173.306C516.962 173.916 528.452 172.305 536.88 167.694C541.1 165.385 544.563 162.318 546.887 158.393C549.213 154.464 550.382 149.704 550.055 144.039C548.758 121.559 537.445 105.582 526.479 95.239C520.996 90.0673 515.594 86.2988 511.563 83.8226C509.547 82.5843 507.873 81.6685 506.7 81.0616C506.114 80.7581 505.654 80.5318 505.339 80.3809C505.181 80.3054 505.06 80.2489 504.978 80.2109C504.937 80.1919 504.905 80.1776 504.884 80.168L504.859 80.1569L504.853 80.154L504.851 80.1532C504.851 80.153 504.85 80.1528 504.679 80.5388L504.85 80.1528C504.608 80.0451 504.325 80.1543 504.217 80.3968Z" fill="#1E212C"/>
<path fill-rule="evenodd" clip-rule="evenodd" d="M464.898 86.4704C464.73 86.2659 464.427 86.2369 464.223 86.4058L464.528 86.7762C464.223 86.4058 464.223 86.406 464.223 86.4062L464.222 86.4071L464.218 86.4099L464.206 86.4202C464.195 86.4293 464.179 86.4425 464.159 86.4599C464.118 86.4946 464.057 86.5462 463.979 86.6143C463.822 86.7506 463.592 86.9534 463.299 87.2217C462.713 87.7584 461.872 88.5574 460.848 89.6113C458.799 91.7189 456.018 94.847 453.075 98.936C447.363 106.871 441.039 118.434 438.303 133.185C438.25 133.088 438.194 132.986 438.136 132.879C437.609 131.915 436.852 130.539 435.927 128.887C434.079 125.585 431.563 121.18 428.895 116.774C426.227 112.37 423.401 107.955 420.932 104.637C419.699 102.979 418.545 101.581 417.537 100.593C417.033 100.099 416.554 99.6962 416.11 99.4137C415.674 99.1368 415.222 98.9436 414.784 98.9436C413.795 98.9436 412.53 98.8957 411.156 98.8438C410.857 98.8325 410.553 98.821 410.245 98.8097C408.533 98.7472 406.723 98.6929 405.151 98.7291C403.604 98.7646 402.206 98.8875 401.368 99.2186C400.966 99.3775 400.521 99.6522 400.421 100.151C400.321 100.647 400.617 101.102 400.995 101.481C402.512 102.998 404.824 103.955 406.702 104.533C407.65 104.825 408.506 105.025 409.125 105.153C409.19 105.166 409.252 105.178 409.311 105.19C409.215 105.317 409.113 105.46 409.007 105.616C408.565 106.272 408.054 107.199 407.84 108.233C407.623 109.279 407.707 110.453 408.488 111.54C409.218 112.556 410.513 113.435 412.579 114.086C412.578 114.183 412.576 114.297 412.575 114.429C412.569 114.89 412.567 115.565 412.578 116.423C412.6 118.138 412.674 120.584 412.885 123.512C413.307 129.366 414.275 137.161 416.462 144.902C418.648 152.638 422.062 160.359 427.403 166.029C432.759 171.716 440.037 175.322 449.877 174.827C450.141 174.814 450.345 174.588 450.332 174.323C450.318 174.058 450.093 173.854 449.828 173.867C440.287 174.348 433.276 170.865 428.101 165.37C422.91 159.858 419.55 152.303 417.385 144.641C415.222 136.984 414.261 129.259 413.842 123.443C413.633 120.536 413.559 118.11 413.537 116.411C413.527 115.561 413.529 114.894 413.534 114.44C413.536 114.212 413.54 114.039 413.542 113.922C413.543 113.864 413.545 113.819 413.545 113.79L413.546 113.757L413.546 113.75L413.547 113.748C413.547 113.747 413.547 113.747 413.067 113.732L413.547 113.748C413.553 113.528 413.411 113.332 413.201 113.271C411.039 112.643 409.865 111.811 409.267 110.979C408.679 110.161 408.603 109.278 408.779 108.428C408.958 107.566 409.395 106.758 409.803 106.154C410.005 105.854 410.195 105.611 410.333 105.443C410.403 105.36 410.459 105.296 410.497 105.253C410.516 105.232 410.531 105.216 410.54 105.206L410.55 105.195L410.552 105.193C410.676 105.063 410.717 104.874 410.659 104.704C410.6 104.534 410.451 104.411 410.273 104.385L410.205 104.861C410.273 104.385 410.273 104.385 410.273 104.385L410.27 104.385L410.259 104.383C410.248 104.382 410.232 104.379 410.211 104.376C410.169 104.369 410.105 104.359 410.022 104.345C409.857 104.317 409.617 104.273 409.318 104.212C408.721 104.089 407.896 103.896 406.984 103.615C405.141 103.048 403.018 102.146 401.673 100.801C401.516 100.644 401.432 100.524 401.392 100.44C401.372 100.4 401.365 100.373 401.362 100.358C401.361 100.35 401.361 100.346 401.361 100.343C401.361 100.341 401.361 100.34 401.361 100.34C401.361 100.34 401.361 100.34 401.362 100.339C401.362 100.338 401.363 100.335 401.366 100.331C401.372 100.322 401.384 100.305 401.411 100.282C401.466 100.234 401.563 100.174 401.72 100.112C402.376 99.8529 403.607 99.7254 405.173 99.6895C406.713 99.6541 408.497 99.7071 410.21 99.7698C410.514 99.7808 410.815 99.7922 411.112 99.8035C412.486 99.8555 413.775 99.9042 414.784 99.9042C414.954 99.9042 415.22 99.9859 415.595 100.225C415.962 100.458 416.387 100.811 416.866 101.28C417.822 102.216 418.941 103.568 420.163 105.21C422.604 108.492 425.411 112.876 428.074 117.272C430.735 121.665 433.245 126.06 435.09 129.357C436.013 131.005 436.769 132.379 437.294 133.34C437.557 133.821 437.762 134.198 437.901 134.456C437.945 134.538 437.983 134.608 438.014 134.665C438.032 134.697 438.047 134.725 438.059 134.749L438.112 134.848L438.113 134.849C438.113 134.849 438.113 134.849 438.536 134.622L438.113 134.849C438.21 135.03 438.411 135.129 438.614 135.096C438.816 135.063 438.975 134.904 439.009 134.702C441.569 119.483 448.03 107.589 453.853 99.4976C456.764 95.4526 459.515 92.3604 461.535 90.2812C462.546 89.2417 463.373 88.4557 463.947 87.9307C464.233 87.6682 464.457 87.471 464.607 87.34C464.683 87.2745 464.74 87.2256 464.778 87.1933C464.797 87.1772 464.812 87.1652 464.821 87.1574L464.831 87.1489L464.833 87.147" fill="#1E212C"/>
</svg>
