<svg width="148" height="148" viewBox="0 0 148 148" fill="none" xmlns="http://www.w3.org/2000/svg">
<g clip-path="url(#clip0_1473_4666)">
<circle opacity="0.3" cx="74" cy="74" r="71" stroke="#F89828" stroke-width="6"/>
<path d="M74 142.5C111.832 142.5 142.5 111.832 142.5 74C142.5 36.3353 112.101 5.77059 74.5 5.50179V0.501665C114.863 0.770561 147.5 33.5739 147.5 74C147.5 114.593 114.593 147.5 74 147.5C33.4071 147.5 0.5 114.593 0.5 74C0.5 51.6848 10.444 31.6927 26.1443 18.2122L29.304 22.0897C14.7287 34.6507 5.5 53.2479 5.5 74C5.5 111.832 36.1685 142.5 74 142.5Z" fill="#F89828" stroke="black"/>
</g>
<defs>
<clipPath id="clip0_1473_4666">
<rect width="148" height="148" fill="white"/>
</clipPath>
</defs>
</svg>
