<svg width="605" height="673" viewBox="0 0 605 673" fill="none" xmlns="http://www.w3.org/2000/svg">
<path d="M314.809 324.001C315.209 320.801 340.975 317.668 353.809 316.501C351.809 315.701 353.642 304.834 354.809 299.501C353.642 299.501 351.109 299.301 350.309 298.501C349.509 297.701 349.975 296.501 350.309 296.001C348.642 295.834 344.809 295.301 342.809 294.501C341.209 294.101 343.142 290.668 344.309 289.001C343.642 288.501 342.209 287.201 341.809 286.001C341.309 284.501 346.309 281.001 345.309 281.001C344.509 281.001 343.642 279.334 343.309 278.501L334.309 276.501C333.309 276.501 329.809 276.601 323.809 277.001C307.409 277.801 277.309 285.668 264.309 289.501C261.309 291.001 255.509 299.001 256.309 319.001C257.109 339.001 276.642 384.668 286.309 405.001L333.809 376.001C328.475 364.001 317.209 338.601 314.809 333.001C314.809 328.001 314.309 328.001 314.809 324.001Z" fill="white"/>
<path d="M419.307 284.501C423.707 274.501 417.474 269.668 413.807 268.501C408.307 289.501 378.309 297.001 356.809 300.501C349.809 316.501 356.809 336.501 356.809 344.001C357.209 352.801 409.309 414.001 435.309 443.501L489.309 411.501C460.975 383.668 403.909 326.601 402.309 321.001C400.309 314.001 413.807 297.001 419.307 284.501Z" fill="white"/>
<path d="M165.576 513.238L165.519 513.296C165.231 513.584 164.827 513.814 164.424 513.929C168.168 518.076 169.031 524.411 166.267 529.478L166.152 529.651C165.749 530.342 165.346 530.976 164.827 531.552C163.618 533.049 162.466 534.489 161.43 535.871C161.948 535.813 162.409 535.928 162.869 536.159C163.791 534.949 164.827 533.682 165.864 532.358C166.382 531.724 166.843 531.091 167.246 530.4L167.361 530.227C170.471 524.814 169.607 517.788 165.576 513.238Z" fill="#1E212C"/>
<path d="M236.928 486.518C231.342 483.812 225.583 481.508 219.19 479.78C218.902 480.011 218.557 480.183 218.211 480.299C217.981 480.356 217.751 480.356 217.52 480.356C217.405 480.471 217.232 480.587 217.059 480.644C217.002 480.644 216.944 480.702 216.887 480.702C223.855 482.487 230.535 484.791 236.41 487.67C237.676 488.303 238.943 488.937 240.153 489.628C240.326 489.225 240.671 488.879 241.017 488.591C239.635 487.9 238.31 487.209 236.928 486.518Z" fill="#1E212C"/>
<path d="M208.596 494.925C208.481 493.312 207.905 492.161 206.926 491.47C205.313 490.26 203.01 490.778 202.952 490.778L202.664 489.511C202.779 489.511 205.544 488.878 207.674 490.433C208.941 491.354 209.69 492.852 209.863 494.81L208.596 494.925Z" fill="#1E212C"/>
<path d="M257.949 611.259C253.572 611.201 241.536 610.049 231.055 601.008C220.228 591.621 214.008 576.763 212.684 556.722L214.008 556.606C215.333 576.244 221.38 590.872 231.918 599.971C243.321 609.877 256.567 609.992 259.158 609.934C264.744 590.469 261.289 574.114 249.022 561.271C239.808 551.596 228.751 547.738 228.636 547.68L229.039 546.413C229.154 546.471 240.499 550.444 249.944 560.35C258.697 569.506 267.566 585.631 260.252 610.74L260.137 611.201L259.676 611.259C259.619 611.259 259.043 611.259 257.949 611.259Z" fill="#1E212C"/>
<path d="M258.292 602.968L256.967 602.795C259.501 584.194 251.266 571.351 243.894 563.807C235.889 555.629 227.136 551.829 227.078 551.771L227.596 550.562C227.712 550.619 236.638 554.478 244.816 562.828C252.417 570.603 260.883 583.848 258.292 602.968Z" fill="#1E212C"/>
<path d="M253.685 606.248L252.418 605.96C256.276 589.72 248.732 575.38 248.617 575.265L249.769 574.632C249.884 574.747 257.658 589.49 253.685 606.248Z" fill="#1E212C"/>
<path d="M242.572 600.2C225.583 594.499 219.363 568.987 219.133 567.892L220.4 567.604C220.457 567.835 226.735 593.52 242.975 598.991L242.572 600.2Z" fill="#1E212C"/>
<path d="M190.57 555.801L234.741 527.64L228.349 540.655L228.176 540.77L207.847 553.67H207.674L190.57 555.801ZM231.516 531.21L196.214 553.728L207.444 552.345L227.37 539.733L231.516 531.21Z" fill="#1E212C"/>
<path d="M378.19 564.211C378.133 564.269 378.075 564.326 377.96 564.384C377.73 564.499 377.557 564.614 377.326 564.787C377.211 564.844 377.096 564.902 376.981 564.902C380.897 569.106 381.703 575.614 378.824 580.739L378.709 580.912C378.305 581.545 377.845 582.236 377.326 582.812C376.059 584.252 374.908 585.692 373.871 587.074C374.389 587.074 374.85 587.189 375.253 587.419C376.232 586.21 377.211 584.943 378.305 583.676C378.824 583.042 379.284 582.409 379.688 581.776L379.803 581.603C383.201 576.017 382.337 568.876 378.19 564.211Z" fill="#1E212C"/>
<path d="M450.234 538.986C444.648 536.164 438.889 533.745 432.439 531.902C431.92 532.305 431.402 532.651 430.941 533.112C437.622 534.955 444.014 537.316 449.658 540.195C450.925 540.829 452.192 541.52 453.401 542.211C453.632 541.808 453.92 541.462 454.265 541.174C452.94 540.368 451.558 539.677 450.234 538.986Z" fill="#1E212C"/>
<path d="M421.73 546.876C421.614 545.263 421.096 544.111 420.117 543.42C418.505 542.211 416.201 542.614 416.143 542.672L415.855 541.405C415.971 541.405 418.793 540.829 420.866 542.441C422.133 543.42 422.824 544.86 422.997 546.876H421.73Z" fill="#1E212C"/>
<path d="M470.684 664.005C466.307 663.833 454.328 662.566 443.962 653.294C433.308 643.734 427.376 628.761 426.34 608.72L427.664 608.662C428.701 628.358 434.46 643.043 444.884 652.315C456.114 662.393 469.359 662.738 471.951 662.738C477.825 643.388 474.715 626.975 462.621 613.903C453.522 604.113 442.58 600.024 442.465 599.966L442.926 598.699C443.041 598.757 454.328 602.903 463.6 612.981C472.181 622.253 480.819 638.551 473.045 663.545L472.93 664.005H472.469C472.411 664.005 471.778 664.063 470.684 664.005Z" fill="#1E212C"/>
<path d="M471.2 655.71L469.875 655.537C472.697 636.993 464.692 623.978 457.436 616.376C449.547 608.083 440.908 604.11 440.793 604.052L441.311 602.843C441.426 602.9 450.295 606.932 458.3 615.397C465.844 623.287 474.079 636.648 471.2 655.71Z" fill="#1E212C"/>
<path d="M466.534 658.88L465.267 658.535C469.413 642.352 462.1 627.897 461.984 627.782L463.136 627.148C463.194 627.379 470.795 642.237 466.534 658.88Z" fill="#1E212C"/>
<path d="M455.534 652.661C438.66 646.671 432.844 621.044 432.613 619.95L433.88 619.662C433.938 619.95 439.754 645.692 455.937 651.394L455.534 652.661Z" fill="#1E212C"/>
<path d="M402.73 607.396L447.362 579.926L440.797 592.883L440.624 592.999L420.122 605.553H419.95L402.73 607.396ZM444.08 583.554L408.432 605.495L419.719 604.286L439.818 592.02L444.08 583.554Z" fill="#1E212C"/>
<path d="M444.195 524.644C442.986 523.608 324.64 420.811 323.776 397.66C323.43 388.734 329.016 380.614 334.948 372.033C344.45 358.269 354.298 344.045 339.901 325.04L338.864 325.846C352.686 344.102 343.126 357.924 333.911 371.284C327.865 380.038 322.163 388.331 322.509 397.718C323.373 420.811 431.986 515.776 442.698 525.048L369.156 569.334C362.245 561.674 261.234 449.145 256.512 427.319C249.255 393.917 256.396 369.499 256.454 369.211L255.187 368.808C255.129 368.981 252.48 378.022 252.02 392.535C246.261 393.168 208.021 397.315 199.959 401.979C197.655 403.304 197.713 407.796 200.132 416.146C201.974 422.424 205.142 430.774 209.519 440.967C216.257 456.574 223.974 471.893 225.528 474.945L159.877 515.315C151.123 498.902 138.454 469.647 129.47 440.679C122.098 416.722 114.612 384.53 120.889 366.792C122.847 361.264 126.129 357.52 130.564 355.678C163.274 342.144 227.371 337.076 228.005 337.019L227.89 335.694C227.256 335.752 162.929 340.82 130.045 354.411C125.208 356.426 121.695 360.4 119.622 366.332C113.172 384.357 120.716 416.895 128.145 441.025C137.244 470.453 150.202 500.111 158.955 516.467L159.301 517.1L226.68 475.694L227.199 475.348L226.911 474.83C226.795 474.657 218.157 457.726 210.67 440.391C197.195 409.178 199.095 403.88 200.535 403.074C208.194 398.639 245.8 394.493 251.904 393.859C251.674 403.246 252.365 414.707 255.129 427.549C260.082 450.354 364.031 565.648 368.465 570.543L368.811 570.946L444.828 525.163L444.195 524.644Z" fill="#1E212C"/>
<path d="M159.014 285.59C140.067 278.852 126.764 263.245 118.99 251.382C109.718 237.157 104.132 221.954 102.75 213.142C101.252 203.64 102.519 202.546 102.807 202.373C103.325 202.143 104.42 203.122 105.053 203.871L105.629 204.619C109.488 217.98 119.105 231.917 119.163 232.089L120.142 231.341C120.026 231.226 110.294 217.001 106.608 203.698C105.802 200.761 105.341 198.457 105.168 196.672C104.996 192.468 105.917 191.086 106.608 190.683C106.896 190.51 107.242 190.395 107.645 190.395H107.702C108.163 190.395 108.566 190.51 108.969 190.625C110.236 191.028 111.503 191.95 112.194 192.526C112.137 193.447 112.194 194.484 112.425 195.635C113.576 202.373 118.759 213.2 128.492 229.498L129.529 228.807C121.869 216.022 112.309 198.86 113.519 191.662C114.037 189.934 114.843 188.955 115.822 188.725C115.88 188.725 115.938 188.725 115.995 188.725C117.55 188.667 119.278 189.934 120.314 190.855C120.602 191.086 120.833 191.316 121.063 191.604C121.121 191.662 121.121 191.662 121.121 191.662C122.042 192.583 122.791 193.447 123.251 194.08C125.44 203.813 137.534 225.121 138.052 226.042L139.088 225.351C138.973 225.121 127.628 205.195 124.749 195.117L124.403 193.677C124.288 193.101 124.173 192.583 124.115 192.122C124 190.855 124.115 189.704 124.691 189.301C125.152 189.013 126.649 188.782 130.911 192.813C134.136 195.808 137.591 202.143 141.622 209.457C147.784 220.687 155.501 234.623 166.386 244.644C173.584 251.209 182.338 253.109 191.668 249.424C192.186 248.848 192.013 248.56 191.955 248.272C191.955 248.157 191.898 248.042 191.898 247.926C182.972 251.497 173.988 249.942 167.134 243.665C156.365 233.817 148.763 219.938 142.601 208.823C138.513 201.394 135 195.002 131.602 191.834C130.565 190.855 129.644 190.107 128.78 189.473C128.434 189.185 125.497 186.709 123.712 187.918C122.848 188.494 122.503 189.761 122.676 191.719C122.388 191.431 122.1 191.143 121.812 190.798C121.754 190.74 121.236 190.164 120.43 189.531C118.875 188.264 117.032 187.227 115.362 187.515C114.44 187.63 113.634 188.091 113.058 188.955C112.597 189.531 112.309 190.28 112.137 191.086C111.676 190.74 111.1 190.337 110.409 189.992C110.351 189.934 109.718 189.588 108.854 189.358C108.796 189.358 108.739 189.358 108.739 189.301C108.681 189.301 108.624 189.243 108.509 189.243C108.393 189.243 108.278 189.185 108.221 189.185H108.163C108.048 189.185 107.933 189.185 107.817 189.128C107.76 189.128 107.702 189.128 107.645 189.128C107.587 189.128 107.53 189.128 107.414 189.128C106.666 189.128 105.859 189.301 105.226 189.876C103.844 191.028 103.383 193.332 103.729 196.902C103.786 198.284 103.959 199.897 104.305 201.682V201.74C103.613 201.222 102.807 200.876 102.001 201.279C100.907 201.797 99.6974 203.583 101.252 213.43C101.252 213.546 101.31 213.661 101.31 213.776C102.692 222.126 107.817 237.042 117.78 252.188C125.67 264.224 139.146 280.061 158.438 286.914C167.826 290.255 176.925 291.752 185.448 291.349C188.558 291.234 191.495 290.83 194.317 290.197C194.259 289.679 194.432 289.16 194.72 288.7C184.181 291.176 171.972 290.139 159.014 285.59Z" fill="#1E212C"/>
<path d="M310.472 283.461C309.781 279.948 308.687 276.551 307.017 273.441C307.017 273.441 306.844 267.452 302.122 260.253C299.818 261.002 297.515 261.808 295.211 262.557C295.787 264.86 296.478 267.164 296.651 269.467C296.651 269.813 296.651 270.101 296.536 270.389C296.939 271.656 297.054 272.923 297.111 274.305C297.169 275.514 297.457 276.723 297.63 277.99C297.918 278.336 298.09 278.682 298.206 279.142C298.263 279.43 298.263 279.718 298.321 279.948C298.321 280.179 298.321 280.409 298.263 280.64C298.436 281.503 298.551 282.367 298.666 283.346C298.839 285.247 299.242 287.032 299.53 288.932C299.818 289.393 299.991 289.911 300.048 290.602C300.106 293.712 301.085 296.765 301.431 299.874C301.431 300.047 301.431 300.22 301.431 300.393C301.431 300.45 301.488 300.508 301.488 300.623C301.834 302.12 302.122 303.56 302.352 305.057C302.813 304.827 303.273 304.654 303.792 304.539C304.368 303.848 304.944 303.099 305.462 302.408C306.844 300.45 307.593 297.859 308.802 295.786C308.975 295.21 309.148 294.576 309.263 293.943C309.954 290.948 310.127 288.241 310.011 285.189C310.069 284.498 310.242 283.922 310.472 283.461Z" fill="#00F0B5"/>
<path d="M353.028 276.779C329.704 212.624 262.267 216.252 262.267 216.252C257.314 229.383 249.136 218.268 249.136 218.268C206.175 225.006 180.145 249.654 180.145 249.654L192.699 291.291L213.143 285.014L221.724 336.268L239.346 339.551C239.346 339.551 239.231 337.363 244.932 333.907C250.634 330.452 274.303 321.813 274.303 321.813C274.303 321.813 300.736 309.662 304.768 302.694C306.15 300.275 305.516 291.406 303.904 280.58L309.605 281.616L353.028 276.779Z" fill="#00F0B5"/>
<path d="M349.687 277.126L348.362 277.299C351.357 291.178 348.65 306.669 340.472 322.334C330.682 341.05 313.118 352.165 300.102 358.212C284.553 365.468 268.601 368.635 259.732 368.52C250.115 368.463 249.251 366.908 249.136 366.562C248.963 365.986 250.115 365.007 250.979 364.489L251.843 363.971C265.664 362.301 280.983 354.699 281.156 354.641L280.58 353.489C280.407 353.547 264.8 361.264 251.094 362.761C248.042 363.107 245.681 363.164 243.895 362.992C239.749 362.473 238.539 361.264 238.194 360.4C238.079 360.055 238.021 359.651 238.079 359.248V359.191C238.194 358.73 238.367 358.269 238.539 357.924C239.173 356.714 240.267 355.505 240.958 354.872C241.88 355.102 242.916 355.217 244.068 355.217C250.864 355.217 262.439 351.704 280.176 344.333L279.658 343.123C265.779 348.882 247.293 355.851 240.382 353.374C238.77 352.51 237.906 351.531 237.848 350.437C237.848 350.38 237.848 350.322 237.848 350.207C238.021 348.594 239.634 346.982 240.67 346.06C240.958 345.83 241.246 345.6 241.476 345.369C241.534 345.312 241.592 345.312 241.592 345.312C242.628 344.505 243.665 343.872 244.356 343.526C254.319 342.951 277.355 334.024 278.334 333.621L277.873 332.412C277.643 332.527 256.104 340.877 245.68 342.087L244.183 342.202C243.55 342.259 243.031 342.259 242.571 342.202C241.304 342.087 240.152 341.741 239.922 341.108C239.691 340.589 239.749 338.977 244.414 335.176C247.926 332.354 254.722 329.82 262.612 326.883C274.706 322.391 289.736 316.805 301.427 307.13C309.144 300.738 312.426 291.869 310.353 281.445L307.474 269.236L306.207 269.524L309.029 281.618C310.756 291.293 307.762 300.162 300.621 306.036C289.103 315.596 274.187 321.124 262.209 325.559C254.204 328.553 247.293 331.087 243.607 334.082C242.513 335.003 241.592 335.81 240.843 336.616C240.497 336.904 237.618 339.61 238.424 341.626C238.827 342.663 240.037 343.239 241.995 343.411C241.649 343.642 241.304 343.872 240.958 344.16C240.901 344.218 240.267 344.678 239.461 345.369C237.906 346.751 236.581 348.537 236.639 350.322C236.581 351.301 236.927 352.222 237.676 353.029C238.194 353.605 238.827 354.065 239.634 354.411C239.23 354.814 238.712 355.39 238.251 356.023C238.194 356.081 237.733 356.714 237.33 357.578C237.33 357.636 237.272 357.693 237.272 357.693C237.215 357.751 237.215 357.809 237.157 357.924C237.1 358.039 237.1 358.154 237.042 358.212V358.269C236.985 358.384 236.985 358.5 236.927 358.615C236.927 358.672 236.927 358.73 236.869 358.788C236.869 358.845 236.812 358.96 236.812 359.018C236.697 359.824 236.754 360.63 237.157 361.437C238.079 363.107 240.267 364.028 243.838 364.259C245.22 364.431 246.832 364.547 248.675 364.489H248.733C248.157 365.122 247.639 365.929 247.869 366.793C248.157 368.002 249.769 369.614 259.732 369.73C259.847 369.73 259.963 369.73 260.078 369.73C268.543 369.73 284.093 367.023 300.736 359.248C313.924 353.086 331.777 341.799 341.739 322.737C346.577 313.465 349.572 304.193 350.608 295.209C351.184 288.989 350.954 283 349.687 277.126Z" fill="#1E212C"/>
<path d="M173.672 587.563L173.008 588.115L229.345 655.794L230.009 655.241L173.672 587.563Z" fill="#00F0B5"/>
<path d="M204.305 599.529L203.641 600.082L259.978 667.76L260.642 667.208L204.305 599.529Z" fill="#00F0B5"/>
<path d="M243.648 460.836L242.984 461.389L299.321 529.067L299.985 528.514L243.648 460.836Z" fill="#00F0B5"/>
<path d="M369.945 405.016L369.281 405.568L425.618 473.247L426.282 472.694L369.945 405.016Z" fill="#00F0B5"/>
<path d="M368.516 307.423L367.852 307.976L424.189 375.654L424.853 375.101L368.516 307.423Z" fill="#00F0B5"/>
<path d="M380.258 341.082L379.594 341.635L435.931 409.313L436.595 408.76L380.258 341.082Z" fill="#00F0B5"/>
<path d="M325.176 209.766L324.512 210.318L380.849 277.997L381.513 277.444L325.176 209.766Z" fill="#00F0B5"/>
<path d="M476.707 527.582L476.043 528.135L532.38 595.813L533.044 595.26L476.707 527.582Z" fill="#00F0B5"/>
<path d="M287.984 593.541L287.32 594.094L343.657 661.772L344.321 661.219L287.984 593.541Z" fill="#00F0B5"/>
<path d="M93.5892 215.213C91.228 211.931 90.3641 208.936 91.0552 206.345C91.8615 203.235 94.6258 201.91 94.741 201.91L95.3169 203.12C95.3169 203.12 92.9557 204.214 92.3222 206.748C91.7463 208.936 92.5526 211.528 94.6258 214.465L93.5892 215.213Z" fill="#00F0B5"/>
<path d="M88.2897 215.158C85.9861 210.954 85.4102 207.096 86.5044 203.813C87.9441 199.379 91.8602 197.536 92.033 197.479L92.6089 198.688C92.5513 198.688 89.0383 200.416 87.7714 204.274C86.7924 207.211 87.3683 210.724 89.4991 214.583L88.2897 215.158Z" fill="#00F0B5"/>
<path d="M134.362 185.961C134.362 185.961 134.074 183.37 131.943 181.93C130.1 180.663 127.394 180.548 123.881 181.585L123.535 180.318C127.451 179.166 130.503 179.339 132.692 180.836C135.341 182.621 135.686 185.673 135.686 185.789L134.362 185.961L134.995 185.904L134.362 185.961Z" fill="#00F0B5"/>
<path d="M139.482 184.865C139.482 184.808 139.022 180.949 135.797 178.473C133.32 176.572 129.865 175.996 125.488 176.687L125.258 175.363C129.98 174.557 133.781 175.248 136.603 177.378C140.289 180.2 140.749 184.52 140.807 184.692L139.482 184.865Z" fill="#00F0B5"/>
<path d="M260.77 507.369L150.947 577.916C150.947 577.916 139.372 557.241 164.999 531.268L236.928 486.521C246.661 489.459 256.681 495.793 260.77 507.369Z" fill="#00F0B5"/>
<path d="M473.731 560.174L362.757 628.936C362.757 628.936 351.527 608.089 377.557 582.519L450.177 538.981C459.968 542.034 469.873 548.541 473.731 560.174Z" fill="#00F0B5"/>
<path d="M230.692 178.515L225.017 210.991L263.614 227.893L273.191 173.088L234.594 156.186L230.692 178.515Z" fill="#E5E8ED"/>
<path d="M230.694 178.514C230.694 178.514 241.747 175.94 245.811 168.051C245.811 168.051 250.178 185.327 263.704 190.102" stroke="#1E212C" stroke-width="1.5" stroke-linecap="round" stroke-linejoin="round"/>
<path d="M251.507 193.716C252.102 193.819 252.669 193.422 252.773 192.828C252.877 192.234 252.478 191.668 251.883 191.564C251.287 191.461 250.721 191.859 250.617 192.453C250.513 193.047 250.911 193.612 251.507 193.716Z" fill="#1E212C"/>
<path d="M234.948 190.835C235.544 190.939 236.111 190.541 236.214 189.947C236.318 189.353 235.92 188.787 235.324 188.684C234.729 188.58 234.162 188.978 234.058 189.572C233.954 190.166 234.353 190.731 234.948 190.835Z" fill="#1E212C"/>
<path d="M238.876 197.02L241.773 180.443L233.449 178.995" stroke="#1E212C" stroke-width="1.5" stroke-linecap="round" stroke-linejoin="round"/>
<path d="M255.5 182.831L247.176 181.383" stroke="#1E212C" stroke-width="1.5" stroke-linecap="round" stroke-linejoin="round"/>
<path d="M266.87 193.564L265.864 199.321C268.977 199.863 271.94 197.784 272.483 194.679C272.513 194.506 272.535 194.334 272.549 194.163C272.844 190.616 267.483 190.059 266.87 193.564Z" fill="#EDEEEF"/>
<path d="M265.869 199.318C268.981 199.859 271.945 197.781 272.487 194.676" stroke="#1E212C" stroke-width="1.5" stroke-linecap="round" stroke-linejoin="round"/>
<path d="M241.795 201.744C243.307 202.007 244.863 201.66 246.119 200.778C247.375 199.897 248.229 198.554 248.493 197.045" stroke="#1E212C" stroke-width="1.5" stroke-linecap="round" stroke-linejoin="round"/>
<path d="M225.016 210.994L263.612 227.897" stroke="#1E212C" stroke-width="1.5" stroke-linecap="round" stroke-linejoin="round"/>
<path d="M238.871 197.033L242.356 198.559" stroke="#1E212C" stroke-width="1.5" stroke-linecap="round" stroke-linejoin="round"/>
<path d="M229.545 185.084C229.545 185.084 218.593 146.058 251.73 155.339C251.73 155.339 301.641 171.573 267.406 206.192" stroke="#1E212C" stroke-width="1.5" stroke-linecap="round" stroke-linejoin="round"/>
<path d="M542.169 405.274L602.832 399.627L604.302 415.371L543.638 421.018L542.169 405.274Z" fill="white"/>
<path d="M543.671 421.482L604.344 415.834C604.467 415.821 604.579 415.76 604.658 415.665C604.737 415.57 604.776 415.448 604.767 415.325L603.297 399.581C603.286 399.458 603.226 399.344 603.13 399.264C603.034 399.185 602.911 399.147 602.787 399.159L542.114 404.806C541.991 404.818 541.877 404.878 541.797 404.974C541.718 405.069 541.68 405.192 541.691 405.316L543.161 421.06C543.172 421.183 543.233 421.297 543.328 421.376C543.424 421.456 543.547 421.494 543.671 421.482ZM603.79 414.946L544.051 420.507L542.665 405.658L602.404 400.097L603.79 414.946Z" fill="#B3B7BC"/>
<path d="M508.685 408.39L558.129 403.787L559.599 419.531L510.155 424.133L508.685 408.39Z" fill="#B3B7BC"/>
<path d="M510.189 424.6L559.66 419.994C559.784 419.983 559.898 419.923 559.978 419.827C560.057 419.732 560.095 419.609 560.083 419.485L558.614 403.741C558.602 403.618 558.542 403.504 558.446 403.425C558.351 403.345 558.227 403.307 558.104 403.319L508.632 407.924C508.508 407.935 508.394 407.996 508.315 408.091C508.235 408.187 508.197 408.31 508.209 408.433L509.678 424.177C509.692 424.3 509.753 424.412 509.848 424.491C509.943 424.57 510.065 424.609 510.189 424.6ZM559.088 419.108L510.55 423.626L509.164 408.777L557.702 404.259L559.088 419.108Z" fill="#B3B7BC"/>
<path d="M547.354 388.913L595.957 384.389L597.427 400.132L548.823 404.657L547.354 388.913Z" fill="white"/>
<path d="M548.866 405.087L597.469 400.563C597.593 400.551 597.707 400.491 597.787 400.396C597.866 400.3 597.904 400.177 597.892 400.053L596.426 384.347C596.415 384.223 596.355 384.109 596.259 384.03C596.163 383.951 596.04 383.913 595.916 383.924L547.313 388.449C547.189 388.46 547.075 388.52 546.995 388.616C546.916 388.711 546.878 388.835 546.889 388.958L548.359 404.702C548.381 404.817 548.445 404.92 548.539 404.991C548.632 405.062 548.749 405.096 548.866 405.087ZM596.916 399.674L549.245 404.112L547.866 389.337L595.536 384.9L596.916 399.674Z" fill="#B3B7BC"/>
<path d="M514.859 391.937L547.352 388.912L548.821 404.656L516.329 407.68L514.859 391.937Z" fill="#B3B7BC"/>
<path d="M516.371 408.107L548.864 405.082C548.988 405.071 549.102 405.011 549.181 404.915C549.26 404.819 549.299 404.696 549.287 404.573L547.821 388.866C547.809 388.743 547.749 388.629 547.653 388.55C547.558 388.47 547.434 388.432 547.311 388.444L514.818 391.468C514.694 391.48 514.58 391.54 514.501 391.636C514.421 391.731 514.383 391.854 514.395 391.978L515.864 407.722C515.885 407.838 515.948 407.942 516.042 408.013C516.136 408.085 516.254 408.118 516.371 408.107ZM548.31 404.194L516.723 407.134L515.344 392.36L546.931 389.419L548.31 404.194Z" fill="#B3B7BC"/>
<path d="M538.674 401.133C536.772 401.31 535.086 399.914 534.909 398.014C534.732 396.115 536.13 394.431 538.032 394.254C539.934 394.077 541.62 395.474 541.798 397.373C541.975 399.273 540.577 400.956 538.674 401.133Z" fill="white"/>
<path d="M547.695 380.878L590.465 376.896L591.204 384.82L548.435 388.801L547.695 380.878Z" fill="white"/>
<path d="M548.478 389.274L591.247 385.293C591.371 385.281 591.485 385.221 591.565 385.125C591.644 385.03 591.682 384.907 591.671 384.783L590.93 376.851C590.919 376.727 590.858 376.613 590.763 376.534C590.667 376.455 590.544 376.417 590.42 376.428L547.65 380.409C547.527 380.421 547.413 380.481 547.333 380.577C547.254 380.672 547.216 380.795 547.227 380.919L547.968 388.851C547.979 388.975 548.039 389.089 548.135 389.168C548.231 389.247 548.354 389.285 548.478 389.274ZM590.694 384.404L548.858 388.298L548.204 381.298L590.04 377.404L590.694 384.404Z" fill="#B3B7BC"/>
<path d="M521.679 383.303L562.367 379.516L563.107 387.439L522.419 391.226L521.679 383.303Z" fill="#B3B7BC"/>
<path d="M522.466 391.699L563.154 387.912C563.278 387.9 563.392 387.84 563.471 387.745C563.55 387.649 563.588 387.526 563.577 387.402L562.836 379.47C562.825 379.346 562.765 379.232 562.669 379.153C562.573 379.074 562.45 379.036 562.326 379.047L521.638 382.835C521.515 382.849 521.403 382.909 521.324 383.004C521.245 383.099 521.206 383.221 521.215 383.344L521.955 391.277C521.969 391.399 522.03 391.512 522.125 391.591C522.22 391.67 522.342 391.708 522.466 391.699ZM562.6 387.023L522.845 390.724L522.192 383.724L561.947 380.023L562.6 387.023Z" fill="#B3B7BC"/>
<path d="M551.514 415.811C549.612 415.988 547.926 414.592 547.749 412.692C547.571 410.793 548.97 409.109 550.872 408.932C552.774 408.755 554.46 410.151 554.637 412.051C554.815 413.951 553.416 415.634 551.514 415.811Z" fill="white"/>
<path d="M516.369 408.106L546.015 405.347C546.138 405.333 546.25 405.272 546.329 405.177C546.408 405.082 546.447 404.96 546.438 404.837C546.426 404.714 546.366 404.6 546.271 404.52C546.175 404.441 546.052 404.403 545.928 404.415L516.282 407.174C516.158 407.186 516.044 407.246 515.965 407.341C515.886 407.437 515.847 407.56 515.859 407.684C515.87 407.807 515.931 407.921 516.026 408C516.122 408.08 516.245 408.118 516.369 408.106Z" fill="white"/>
<path d="M522.466 391.697L547.398 389.376C547.521 389.364 547.636 389.304 547.715 389.209C547.794 389.113 547.832 388.99 547.821 388.866C547.809 388.743 547.749 388.629 547.653 388.55C547.558 388.47 547.434 388.432 547.311 388.444L522.379 390.765C522.255 390.776 522.141 390.836 522.062 390.932C521.982 391.027 521.944 391.151 521.956 391.274C521.97 391.397 522.03 391.509 522.125 391.588C522.221 391.667 522.343 391.706 522.466 391.697Z" fill="white"/>
<rect x="455.223" y="41.3525" width="72.0385" height="52.613" transform="rotate(24.4902 455.223 41.3525)" fill="white"/>
<path d="M386.457 98.7829L386.346 98.7334C378.497 94.9278 379.714 86.3664 379.726 86.2788C379.74 86.197 379.769 86.1187 379.812 86.0481C379.855 85.9775 379.912 85.9161 379.979 85.8674C380.046 85.8187 380.122 85.7836 380.203 85.7642C380.283 85.7448 380.367 85.7414 380.448 85.7542C380.53 85.767 380.609 85.7958 380.679 85.8389C380.75 85.882 380.811 85.9386 380.86 86.0054C380.908 86.0723 380.943 86.1481 380.962 86.2285C380.982 86.3089 380.985 86.3923 380.972 86.474C380.92 86.7974 379.896 94.2454 386.922 97.6573L386.956 97.6722C390.466 99.2368 397.165 90.9334 403.096 83.5403C409.206 75.8672 415.101 68.6717 419.09 69.4367C419.895 69.5562 420.666 69.8392 421.356 70.2683C422.046 70.6974 422.64 71.2635 423.102 71.9316C425.411 75.4001 424.08 81.6314 422.606 88.8653C421.663 92.9229 420.983 97.0366 420.571 101.181C420.101 107.396 422.231 112.331 425.898 113.486C430.443 114.912 436.421 110.325 441.865 101.196C457.398 75.1703 468.279 76.4086 472.21 78.1341L472.354 78.1985C482.173 82.5755 484.881 90.114 482.018 105.046C482.002 105.126 481.97 105.203 481.925 105.271C481.879 105.339 481.821 105.398 481.753 105.444C481.615 105.536 481.446 105.57 481.284 105.538C481.121 105.507 480.978 105.412 480.886 105.274C480.794 105.137 480.76 104.969 480.793 104.806C483.551 90.3743 481.13 83.4435 471.823 79.2944L471.689 79.2349C464.081 75.8433 453.264 84.3508 442.893 101.814C437.063 111.598 430.724 116.276 425.516 114.635C421.314 113.335 418.834 107.871 419.346 101.088C419.759 96.9084 420.437 92.7587 421.377 88.6639C422.771 81.9942 424.088 75.7035 422.053 72.6367C421.68 72.102 421.201 71.6505 420.644 71.3107C420.088 70.9709 419.467 70.7502 418.82 70.6625C415.529 70.0353 409.411 77.638 404.018 84.3377C397.17 92.7348 390.8 100.719 386.457 98.7829Z" fill="#00F0B5"/>
<path d="M461.924 148.404L370.723 107.749C370.576 107.683 370.461 107.562 370.403 107.411C370.346 107.26 370.351 107.093 370.417 106.946L400.782 39.2936C400.848 39.1463 400.97 39.0312 401.121 38.9735C401.272 38.9157 401.439 38.9202 401.587 38.9858L492.788 79.6409C492.933 79.709 493.046 79.8306 493.103 79.9803C493.16 80.13 493.157 80.2961 493.094 80.4438L462.729 148.096C462.663 148.243 462.541 148.358 462.39 148.416C462.239 148.474 462.071 148.469 461.924 148.404ZM371.777 106.886L461.867 147.045L491.734 80.504L401.643 40.3441L371.777 106.886Z" fill="#B3B7BC"/>
<path d="M465.781 117.093L453.041 111.414C452.894 111.348 452.779 111.227 452.721 111.076C452.664 110.926 452.669 110.758 452.735 110.611C452.801 110.464 452.923 110.349 453.074 110.291C453.225 110.233 453.392 110.238 453.54 110.303L466.28 115.982C466.427 116.048 466.542 116.169 466.599 116.32C466.657 116.471 466.652 116.638 466.586 116.785C466.52 116.933 466.398 117.048 466.247 117.105C466.096 117.163 465.928 117.159 465.781 117.093Z" fill="#787A80"/>
<path d="M463.418 122.349L450.678 116.67C450.531 116.604 450.416 116.483 450.358 116.332C450.301 116.181 450.306 116.014 450.372 115.867C450.438 115.72 450.56 115.604 450.711 115.547C450.862 115.489 451.029 115.493 451.176 115.559L463.916 121.238C464.064 121.304 464.179 121.425 464.236 121.576C464.293 121.727 464.289 121.894 464.222 122.041C464.156 122.188 464.034 122.304 463.884 122.361C463.733 122.419 463.565 122.415 463.418 122.349Z" fill="#787A80"/>
<path d="M454.691 124.736L448.326 121.899C448.179 121.834 448.064 121.712 448.007 121.562C447.949 121.411 447.954 121.244 448.02 121.096C448.086 120.949 448.208 120.834 448.359 120.776C448.51 120.718 448.678 120.723 448.825 120.789L455.189 123.626C455.337 123.691 455.452 123.813 455.509 123.963C455.566 124.114 455.561 124.281 455.495 124.429C455.429 124.576 455.307 124.691 455.156 124.749C455.006 124.806 454.838 124.802 454.691 124.736Z" fill="#787A80"/>
<path d="M420.184 56.3255L407.444 50.6463C407.296 50.5807 407.181 50.4592 407.124 50.3086C407.066 50.1581 407.071 49.9907 407.137 49.8434C407.204 49.6961 407.325 49.581 407.476 49.5232C407.627 49.4655 407.795 49.47 407.942 49.5356L420.682 55.2148C420.829 55.2804 420.944 55.4019 421.002 55.5525C421.059 55.703 421.054 55.8704 420.988 56.0177C420.92 56.1628 420.797 56.2759 420.647 56.3333C420.497 56.3907 420.331 56.3879 420.184 56.3255Z" fill="#787A80"/>
<path d="M417.797 61.634L405.057 55.9549C404.91 55.8893 404.795 55.7678 404.737 55.6172C404.68 55.4666 404.685 55.2993 404.751 55.152C404.817 55.0047 404.939 54.8896 405.09 54.8319C405.241 54.7741 405.408 54.7786 405.555 54.8442L418.295 60.5234C418.44 60.5915 418.553 60.7131 418.61 60.8628C418.667 61.0125 418.664 61.1786 418.601 61.3263C418.535 61.4735 418.413 61.5887 418.262 61.6464C418.112 61.7042 417.944 61.6997 417.797 61.634Z" fill="#787A80"/>
<path d="M409.085 64.0049L402.721 61.1678C402.574 61.1022 402.459 60.9807 402.401 60.8301C402.344 60.6795 402.349 60.5122 402.415 60.3649C402.481 60.2176 402.603 60.1025 402.754 60.0447C402.905 59.987 403.072 59.9915 403.219 60.0571L409.584 62.8942C409.731 62.9599 409.846 63.0814 409.904 63.2319C409.961 63.3825 409.956 63.5499 409.89 63.6972C409.824 63.8444 409.702 63.9596 409.551 64.0173C409.4 64.075 409.233 64.0706 409.085 64.0049Z" fill="#787A80"/>
<ellipse cx="13.968" cy="13.9386" rx="13.968" ry="13.9386" transform="matrix(-0.992951 -0.118525 -0.118525 0.992951 41.1641 287.33)" fill="white"/>
<path d="M28.9886 318.606L35.8918 315.86L39.3891 324.622L32.486 327.368L28.9886 318.606Z" fill="#787A80"/>
<path d="M44.4558 358.752C44.7668 358.782 45.0805 358.735 45.3696 358.617L51.5683 356.157C52.0526 355.961 52.4401 355.582 52.6472 355.102C52.8544 354.623 52.8647 354.081 52.6759 353.594L41.4301 325.427C41.2329 324.943 40.8533 324.556 40.3732 324.349C39.8931 324.142 39.3508 324.132 38.8631 324.32L32.6711 326.781C32.1868 326.978 31.7993 327.356 31.5921 327.836C31.385 328.315 31.3747 328.857 31.5635 329.344L42.7961 357.51C42.9321 357.849 43.1589 358.144 43.4516 358.363C43.7443 358.582 44.0917 358.717 44.4558 358.752ZM39.7098 324.833C39.8473 324.844 39.9818 324.88 40.1073 324.937C40.2674 325.006 40.4122 325.107 40.5333 325.233C40.6544 325.359 40.7495 325.507 40.8133 325.669L52.0597 353.83C52.186 354.155 52.1791 354.517 52.0405 354.837C51.9019 355.157 51.6426 355.41 51.3188 355.541L45.1268 358.001C44.8019 358.128 44.4402 358.122 44.1196 357.985C43.7989 357.847 43.5451 357.59 43.4129 357.268L32.1653 329.12C32.0389 328.795 32.0458 328.433 32.1844 328.113C32.323 327.793 32.5823 327.54 32.9061 327.409L39.0981 324.949C39.2891 324.86 39.4994 324.82 39.7098 324.833Z" fill="#787A80"/>
<path d="M24.1758 319.176C29.061 319.647 33.9435 318.26 37.8485 315.293C41.7535 312.325 44.3938 307.996 45.2424 303.169C46.0909 298.342 45.0852 293.373 42.426 289.253C39.7668 285.133 35.6498 282.165 30.8969 280.943C26.1439 279.72 21.1048 280.332 16.7853 282.658C12.4658 284.983 9.18385 288.849 7.59459 293.486C6.00532 298.122 6.22568 303.187 8.21166 307.67C10.1976 312.152 13.8031 315.722 18.3084 317.667C20.1726 318.475 22.1528 318.985 24.1758 319.176ZM27.6888 281.183C29.6481 281.369 31.5664 281.859 33.3747 282.636C37.6901 284.499 41.1443 287.917 43.0485 292.21C44.9526 296.503 45.1669 301.354 43.6484 305.796C42.13 310.238 38.9904 313.945 34.8559 316.178C30.7213 318.41 25.8956 319.004 21.341 317.841C16.7864 316.677 12.8376 313.843 10.2821 309.902C7.72667 305.961 6.75228 301.203 7.55327 296.577C8.35427 291.952 10.8718 287.798 14.6038 284.945C18.3358 282.092 23.0081 280.749 27.6888 281.183ZM24.6374 314.313C26.9202 314.526 29.221 314.195 31.3504 313.348C34.6651 312.033 37.381 309.549 38.9832 306.367C40.5853 303.185 40.9622 299.526 40.0425 296.084C39.1227 292.643 36.9702 289.657 33.9932 287.694C31.0161 285.731 27.4216 284.927 23.8913 285.435C20.3609 285.942 17.1403 287.726 14.8401 290.448C12.5399 293.169 11.3202 296.64 11.4122 300.201C11.5042 303.761 12.9016 307.165 15.3392 309.766C17.7769 312.368 21.0855 313.985 24.6374 314.313ZM31.0944 312.73C28.5456 313.742 25.7536 313.977 23.0708 313.405C20.3879 312.834 17.9344 311.482 16.0197 309.52C14.1049 307.558 12.8148 305.073 12.3121 302.38C11.8094 299.687 12.1166 296.906 13.195 294.388C14.2801 291.87 16.0884 289.729 18.3914 288.238C20.6944 286.746 23.3887 285.97 26.1338 286.007C28.8789 286.044 31.5517 286.893 33.8144 288.447C36.077 290 37.828 292.188 38.846 294.735C40.2007 298.149 40.1455 301.96 38.6927 305.333C37.2398 308.706 34.5076 311.366 31.0944 312.73Z" fill="#787A80"/>
<rect width="12.9072" height="12.8677" transform="matrix(1 0 0 -1 28.8477 46.6592)" fill="#D7DADD"/>
<path d="M25.3082 34.7617L35.3006 24.7998L45.293 34.7617H25.3082Z" fill="#D7DADD"/>
<rect width="17.7937" height="17.7392" transform="matrix(1 0 0 -1 50.168 46.9287)" fill="#B3B7BC"/>
<path d="M45.2892 30.5294L59.0645 16.7959L72.8398 30.5294H45.2892Z" fill="#B3B7BC"/>
<rect width="22.9053" height="22.8354" transform="matrix(1 0 0 -1 79.125 46.79)" fill="#00F0B5"/>
<path d="M72.8431 25.6788L90.5758 8L108.309 25.6788H72.8431Z" fill="#00F0B5"/>
<path d="M79.3426 672.476L12.5893 654.805L25.7734 605.32L26.9845 605.641L14.1244 653.91L79.6666 671.259L79.3426 672.476Z" fill="#D7DADD"/>
<path d="M38.2518 635.11L30.3984 633.031L24.106 656.649L31.9594 658.728L38.2518 635.11Z" fill="#D7DADD"/>
<path d="M56.8064 628.585L48.9531 626.506L39.8141 660.808L47.6674 662.887L56.8064 628.585Z" fill="#D7DADD"/>
<path d="M76.7049 626.026L68.8516 623.947L57.7649 665.56L65.6183 667.639L76.7049 626.026Z" fill="#D7DADD"/>
</svg>
